G04 #@! TF.FileFunction,Profile,NP*
%FSLAX46Y46*%
G04 Gerber Fmt 4.6, Leading zero omitted, Abs format (unit mm)*
G04 Created by KiCad (PCBNEW 4.0.7) date 07/08/18 18:21:33*
%MOMM*%
%LPD*%
G01*
G04 APERTURE LIST*
%ADD10C,0.100000*%
%ADD11C,0.150000*%
G04 APERTURE END LIST*
D10*
D11*
X131750000Y-61250000D02*
X125250000Y-61250000D01*
X132500000Y-62000000D02*
G75*
G03X131750000Y-61250000I-750000J0D01*
G01*
X125250000Y-61250000D02*
G75*
G03X124500000Y-62000000I0J-750000D01*
G01*
X139000000Y-62000000D02*
G75*
G03X137500000Y-62000000I-750000J0D01*
G01*
X119500000Y-62000000D02*
G75*
G03X118000000Y-62000000I-750000J0D01*
G01*
X137000000Y-90500000D02*
X133000000Y-90500000D01*
X124000000Y-90500000D02*
X120000000Y-90500000D01*
X118000000Y-88500000D02*
G75*
G03X120000000Y-90500000I2000000J0D01*
G01*
X124000000Y-90500000D02*
G75*
G03X126000000Y-88500000I0J2000000D01*
G01*
X127000000Y-75500000D02*
X130000000Y-75500000D01*
X133500000Y-88500000D02*
X136500000Y-88500000D01*
X120500000Y-88500000D02*
X123500000Y-88500000D01*
X119500000Y-87500000D02*
X119500000Y-87500000D01*
X124500000Y-62000000D02*
X124500000Y-87500000D01*
X123500000Y-88500000D02*
G75*
G03X124500000Y-87500000I0J1000000D01*
G01*
X119500000Y-87500000D02*
G75*
G03X120500000Y-88500000I1000000J0D01*
G01*
X136500000Y-88500000D02*
G75*
G03X137500000Y-87500000I0J1000000D01*
G01*
X137500000Y-62000000D02*
X137500000Y-87500000D01*
X119500000Y-62000000D02*
X119500000Y-87500000D01*
X132500000Y-87500000D02*
G75*
G03X133500000Y-88500000I1000000J0D01*
G01*
X132500000Y-62000000D02*
X132500000Y-87500000D01*
X131000000Y-88500000D02*
G75*
G03X133000000Y-90500000I2000000J0D01*
G01*
X127000000Y-75500000D02*
G75*
G03X126000000Y-76500000I0J-1000000D01*
G01*
X131000000Y-76500000D02*
G75*
G03X130000000Y-75500000I-1000000J0D01*
G01*
X131000000Y-88500000D02*
X131000000Y-76500000D01*
X126000000Y-88500000D02*
X126000000Y-76500000D01*
X118000000Y-62000000D02*
X118000000Y-88500000D01*
X137000000Y-90500000D02*
G75*
G03X139000000Y-88500000I0J2000000D01*
G01*
X139000000Y-62000000D02*
X139000000Y-88500000D01*
X142000000Y-109000000D02*
G75*
G03X145000000Y-106000000I0J3000000D01*
G01*
X145000000Y-58000000D02*
G75*
G03X142000000Y-55000000I-3000000J0D01*
G01*
X60000000Y-106000000D02*
G75*
G03X63000000Y-109000000I3000000J0D01*
G01*
X63000000Y-55000000D02*
G75*
G03X60000000Y-58000000I0J-3000000D01*
G01*
X63000000Y-109000000D02*
X142000000Y-109000000D01*
X60000000Y-106000000D02*
X60000000Y-58000000D01*
X145000000Y-58000000D02*
X145000000Y-106000000D01*
X63000000Y-55000000D02*
X142000000Y-55000000D01*
M02*
