G04 #@! TF.FileFunction,Copper,L1,Top,Signal*
%FSLAX46Y46*%
G04 Gerber Fmt 4.6, Leading zero omitted, Abs format (unit mm)*
G04 Created by KiCad (PCBNEW 4.0.7) date 07/08/18 18:21:33*
%MOMM*%
%LPD*%
G01*
G04 APERTURE LIST*
%ADD10C,0.100000*%
%ADD11C,0.700000*%
%ADD12C,0.400000*%
%ADD13R,1.500000X1.500000*%
%ADD14R,1.250000X1.000000*%
%ADD15R,0.700000X1.300000*%
%ADD16R,1.300000X0.700000*%
%ADD17R,0.508000X1.143000*%
%ADD18R,1.000000X3.500000*%
%ADD19C,0.600000*%
%ADD20C,0.250000*%
%ADD21C,0.500000*%
%ADD22C,0.254000*%
G04 APERTURE END LIST*
D10*
D11*
X127024191Y-78771714D02*
X130071810Y-78771714D01*
X128548000Y-80295524D02*
X128548000Y-77247905D01*
D12*
X71701332Y-80968167D02*
X71867999Y-80968167D01*
X72034665Y-81051500D01*
X72117999Y-81134833D01*
X72201332Y-81301500D01*
X72284665Y-81634833D01*
X72284665Y-82051500D01*
X72201332Y-82384833D01*
X72117999Y-82551500D01*
X72034665Y-82634833D01*
X71867999Y-82718167D01*
X71701332Y-82718167D01*
X71534665Y-82634833D01*
X71451332Y-82551500D01*
X71367999Y-82384833D01*
X71284665Y-82051500D01*
X71284665Y-81634833D01*
X71367999Y-81301500D01*
X71451332Y-81134833D01*
X71534665Y-81051500D01*
X71701332Y-80968167D01*
X73784666Y-81551500D02*
X73784666Y-82718167D01*
X73367999Y-80884833D02*
X72951332Y-82134833D01*
X74034666Y-82134833D01*
X75534666Y-80968167D02*
X74701333Y-80968167D01*
X74617999Y-81801500D01*
X74701333Y-81718167D01*
X74867999Y-81634833D01*
X75284666Y-81634833D01*
X75451333Y-81718167D01*
X75534666Y-81801500D01*
X75617999Y-81968167D01*
X75617999Y-82384833D01*
X75534666Y-82551500D01*
X75451333Y-82634833D01*
X75284666Y-82718167D01*
X74867999Y-82718167D01*
X74701333Y-82634833D01*
X74617999Y-82551500D01*
X76451333Y-82718167D02*
X76784666Y-82718167D01*
X76951333Y-82634833D01*
X77034666Y-82551500D01*
X77201333Y-82301500D01*
X77284666Y-81968167D01*
X77284666Y-81301500D01*
X77201333Y-81134833D01*
X77118000Y-81051500D01*
X76951333Y-80968167D01*
X76618000Y-80968167D01*
X76451333Y-81051500D01*
X76368000Y-81134833D01*
X76284666Y-81301500D01*
X76284666Y-81718167D01*
X76368000Y-81884833D01*
X76451333Y-81968167D01*
X76618000Y-82051500D01*
X76951333Y-82051500D01*
X77118000Y-81968167D01*
X77201333Y-81884833D01*
X77284666Y-81718167D01*
X80201333Y-80968167D02*
X79368000Y-80968167D01*
X79284666Y-81801500D01*
X79368000Y-81718167D01*
X79534666Y-81634833D01*
X79951333Y-81634833D01*
X80118000Y-81718167D01*
X80201333Y-81801500D01*
X80284666Y-81968167D01*
X80284666Y-82384833D01*
X80201333Y-82551500D01*
X80118000Y-82634833D01*
X79951333Y-82718167D01*
X79534666Y-82718167D01*
X79368000Y-82634833D01*
X79284666Y-82551500D01*
X81118000Y-82718167D02*
X81451333Y-82718167D01*
X81618000Y-82634833D01*
X81701333Y-82551500D01*
X81868000Y-82301500D01*
X81951333Y-81968167D01*
X81951333Y-81301500D01*
X81868000Y-81134833D01*
X81784667Y-81051500D01*
X81618000Y-80968167D01*
X81284667Y-80968167D01*
X81118000Y-81051500D01*
X81034667Y-81134833D01*
X80951333Y-81301500D01*
X80951333Y-81718167D01*
X81034667Y-81884833D01*
X81118000Y-81968167D01*
X81284667Y-82051500D01*
X81618000Y-82051500D01*
X81784667Y-81968167D01*
X81868000Y-81884833D01*
X81951333Y-81718167D01*
X83034667Y-80968167D02*
X83201334Y-80968167D01*
X83368000Y-81051500D01*
X83451334Y-81134833D01*
X83534667Y-81301500D01*
X83618000Y-81634833D01*
X83618000Y-82051500D01*
X83534667Y-82384833D01*
X83451334Y-82551500D01*
X83368000Y-82634833D01*
X83201334Y-82718167D01*
X83034667Y-82718167D01*
X82868000Y-82634833D01*
X82784667Y-82551500D01*
X82701334Y-82384833D01*
X82618000Y-82051500D01*
X82618000Y-81634833D01*
X82701334Y-81301500D01*
X82784667Y-81134833D01*
X82868000Y-81051500D01*
X83034667Y-80968167D01*
X85784667Y-82718167D02*
X86118000Y-82718167D01*
X86284667Y-82634833D01*
X86368000Y-82551500D01*
X86534667Y-82301500D01*
X86618000Y-81968167D01*
X86618000Y-81301500D01*
X86534667Y-81134833D01*
X86451334Y-81051500D01*
X86284667Y-80968167D01*
X85951334Y-80968167D01*
X85784667Y-81051500D01*
X85701334Y-81134833D01*
X85618000Y-81301500D01*
X85618000Y-81718167D01*
X85701334Y-81884833D01*
X85784667Y-81968167D01*
X85951334Y-82051500D01*
X86284667Y-82051500D01*
X86451334Y-81968167D01*
X86534667Y-81884833D01*
X86618000Y-81718167D01*
X88284667Y-82718167D02*
X87284667Y-82718167D01*
X87784667Y-82718167D02*
X87784667Y-80968167D01*
X87618001Y-81218167D01*
X87451334Y-81384833D01*
X87284667Y-81468167D01*
X89118001Y-82718167D02*
X89451334Y-82718167D01*
X89618001Y-82634833D01*
X89701334Y-82551500D01*
X89868001Y-82301500D01*
X89951334Y-81968167D01*
X89951334Y-81301500D01*
X89868001Y-81134833D01*
X89784668Y-81051500D01*
X89618001Y-80968167D01*
X89284668Y-80968167D01*
X89118001Y-81051500D01*
X89034668Y-81134833D01*
X88951334Y-81301500D01*
X88951334Y-81718167D01*
X89034668Y-81884833D01*
X89118001Y-81968167D01*
X89284668Y-82051500D01*
X89618001Y-82051500D01*
X89784668Y-81968167D01*
X89868001Y-81884833D01*
X89951334Y-81718167D01*
D13*
X97562400Y-90678000D03*
X100862400Y-90678000D03*
D14*
X111887000Y-69882000D03*
X111887000Y-71882000D03*
D15*
X100589000Y-72644000D03*
X102489000Y-72644000D03*
X100589000Y-69215000D03*
X102489000Y-69215000D03*
D16*
X105029000Y-79248000D03*
X105029000Y-77348000D03*
X108458000Y-79248000D03*
X108458000Y-77348000D03*
X101552500Y-79243000D03*
X101552500Y-77343000D03*
X111823500Y-79243000D03*
X111823500Y-77343000D03*
D17*
X109728000Y-73914000D03*
X108458000Y-73914000D03*
X107188000Y-73914000D03*
X105918000Y-73914000D03*
X105918000Y-67564000D03*
X107188000Y-67564000D03*
X108458000Y-67564000D03*
X109728000Y-67564000D03*
D13*
X97000000Y-99650000D03*
X97000000Y-96350000D03*
X109000000Y-96350000D03*
X109000000Y-99650000D03*
X103000000Y-99650000D03*
X103000000Y-96350000D03*
X91000000Y-96350000D03*
X91000000Y-99650000D03*
X85000000Y-96350000D03*
X85000000Y-99650000D03*
X79000000Y-99650000D03*
X79000000Y-96350000D03*
X73000000Y-96350000D03*
X73000000Y-99650000D03*
X67000000Y-99650000D03*
X67000000Y-96350000D03*
D15*
X92232400Y-85598000D03*
X94132400Y-85598000D03*
X94168000Y-90678000D03*
X92268000Y-90678000D03*
D13*
X97538000Y-85598000D03*
X100838000Y-85598000D03*
D18*
X121698000Y-103167000D03*
X125698000Y-103167000D03*
X121698000Y-94667000D03*
X125698000Y-94667000D03*
X135906000Y-103167000D03*
X139906000Y-103167000D03*
X135906000Y-94667000D03*
X139906000Y-94667000D03*
D19*
X111887000Y-68707000D03*
X115062000Y-71120000D03*
X128587500Y-89979490D03*
X139906000Y-98933000D03*
X125698000Y-98933000D03*
X111887000Y-73025000D03*
X122000000Y-65000000D03*
X135000000Y-65000000D03*
X111760000Y-64719188D03*
X108458000Y-72390000D03*
X107188000Y-72390032D03*
D20*
X100589000Y-72644000D02*
X100589000Y-73538000D01*
X100589000Y-73538000D02*
X100965000Y-73914000D01*
X100965000Y-73914000D02*
X103505000Y-73914000D01*
X109474000Y-70104000D02*
X110236000Y-69342000D01*
X103505000Y-73914000D02*
X107315000Y-70104000D01*
X107315000Y-70104000D02*
X109474000Y-70104000D01*
D21*
X109728000Y-68834000D02*
X110236000Y-69342000D01*
X110236000Y-69342000D02*
X110776000Y-69882000D01*
X111887000Y-69882000D02*
X111887000Y-68707000D01*
X109728000Y-67881500D02*
X109728000Y-68834000D01*
X110776000Y-69882000D02*
X111728500Y-69882000D01*
D20*
X111728500Y-69882000D02*
X111887000Y-69882000D01*
X109728000Y-67564000D02*
X109728000Y-67881500D01*
D21*
X100584000Y-69151500D02*
X100589000Y-69156500D01*
D20*
X100589000Y-69156500D02*
X100589000Y-72644000D01*
D21*
X115062000Y-71120000D02*
X115062000Y-90170000D01*
X115062000Y-90170000D02*
X116205000Y-91313000D01*
X127253990Y-91313000D02*
X128587500Y-89979490D01*
X116205000Y-91313000D02*
X127253990Y-91313000D01*
X100584000Y-69215000D02*
X100589000Y-69220000D01*
D20*
X139906000Y-99949000D02*
X139906000Y-103167000D01*
X139906000Y-94667000D02*
X139906000Y-99949000D01*
X139906000Y-99949000D02*
X139906000Y-98933000D01*
X125698000Y-99060000D02*
X125698000Y-103167000D01*
X125698000Y-94667000D02*
X125698000Y-99060000D01*
X125698000Y-99060000D02*
X125698000Y-98933000D01*
D21*
X111887000Y-71882000D02*
X111887000Y-73025000D01*
X111760000Y-71882000D02*
X110617000Y-71882000D01*
X110617000Y-71882000D02*
X109728000Y-72771000D01*
X109728000Y-72771000D02*
X109728000Y-73914000D01*
D20*
X111887000Y-71882000D02*
X111762000Y-71882000D01*
X109730000Y-73914000D02*
X109728000Y-73914000D01*
D21*
X122000000Y-65000000D02*
X122000000Y-67200000D01*
X135000000Y-65424264D02*
X135000000Y-66500000D01*
X135000000Y-65000000D02*
X135000000Y-65424264D01*
D20*
X112268000Y-72136000D02*
X112268000Y-71723000D01*
X100711000Y-90932000D02*
X100888800Y-91109800D01*
X100888800Y-91109800D02*
X100888800Y-95681800D01*
X100888800Y-95681800D02*
X101557000Y-96350000D01*
X101557000Y-96350000D02*
X103000000Y-96350000D01*
X102108000Y-80835500D02*
X102108000Y-86868000D01*
X102108000Y-86868000D02*
X102108000Y-88265000D01*
X92232400Y-85598000D02*
X92232400Y-86498000D01*
X92232400Y-86498000D02*
X92602400Y-86868000D01*
X92602400Y-86868000D02*
X102108000Y-86868000D01*
X105029000Y-79248000D02*
X103695500Y-79248000D01*
X102108000Y-88265000D02*
X100862400Y-89510600D01*
X100862400Y-89510600D02*
X100862400Y-90678000D01*
X103695500Y-79248000D02*
X102108000Y-80835500D01*
X109000000Y-96350000D02*
X103000000Y-96350000D01*
X108458000Y-79248000D02*
X109982000Y-79248000D01*
X109982000Y-79248000D02*
X112522000Y-81788000D01*
X112522000Y-99314000D02*
X112141000Y-99695000D01*
X112522000Y-81788000D02*
X112522000Y-99314000D01*
X112141000Y-99695000D02*
X109045000Y-99695000D01*
X109045000Y-99695000D02*
X109000000Y-99650000D01*
X87755000Y-97915000D02*
X89490000Y-99650000D01*
X89490000Y-99650000D02*
X91000000Y-99650000D01*
X75565000Y-97915000D02*
X87755000Y-97915000D01*
X73000000Y-96350000D02*
X74000000Y-96350000D01*
X74000000Y-96350000D02*
X75565000Y-97915000D01*
X67000000Y-96350000D02*
X73000000Y-96350000D01*
X97000000Y-99650000D02*
X91000000Y-99650000D01*
X103000000Y-99650000D02*
X97000000Y-99650000D01*
X109000000Y-99650000D02*
X103000000Y-99650000D01*
X100838000Y-84201000D02*
X101536500Y-83502500D01*
X101536500Y-83502500D02*
X101536500Y-79259000D01*
X101536500Y-79259000D02*
X101552500Y-79243000D01*
X100838000Y-84201000D02*
X91694000Y-84201000D01*
X100838000Y-85598000D02*
X100838000Y-84201000D01*
X101252500Y-79243000D02*
X101552500Y-79243000D01*
X91389200Y-90678000D02*
X91072000Y-90678000D01*
X91072000Y-90678000D02*
X91000000Y-90750000D01*
X91000000Y-90750000D02*
X91000000Y-91067200D01*
X91000000Y-90365000D02*
X91000000Y-90750000D01*
X91389200Y-90678000D02*
X91313000Y-90678000D01*
X91694000Y-84201000D02*
X91000000Y-84895000D01*
X91000000Y-84895000D02*
X91000000Y-90365000D01*
X91000000Y-96350000D02*
X91000000Y-91067200D01*
X91389200Y-90678000D02*
X92268000Y-90678000D01*
X91000000Y-96350000D02*
X97000000Y-96350000D01*
X85000000Y-96350000D02*
X91000000Y-96350000D01*
X100838000Y-85598000D02*
X100965000Y-85471000D01*
X79000000Y-96350000D02*
X97000000Y-96350000D01*
X111823500Y-79243000D02*
X112771000Y-79243000D01*
X112771000Y-79243000D02*
X113157000Y-79629000D01*
X113157000Y-79629000D02*
X113157000Y-99695000D01*
X113157000Y-99695000D02*
X111887000Y-100965000D01*
X111887000Y-100965000D02*
X87315000Y-100965000D01*
X87315000Y-100965000D02*
X86000000Y-99650000D01*
X86000000Y-99650000D02*
X85000000Y-99650000D01*
X79000000Y-99650000D02*
X85000000Y-99650000D01*
X73000000Y-99650000D02*
X79000000Y-99650000D01*
X68000000Y-99650000D02*
X73000000Y-99650000D01*
X111574500Y-79243000D02*
X111823500Y-79243000D01*
X67000000Y-99650000D02*
X68000000Y-99650000D01*
X97538000Y-85598000D02*
X96538000Y-85598000D01*
X96538000Y-85598000D02*
X94132400Y-85598000D01*
X97562400Y-90678000D02*
X94168000Y-90678000D01*
X111810800Y-65709800D02*
X114427000Y-68326000D01*
X114427000Y-68326000D02*
X114427000Y-105410000D01*
X114427000Y-105410000D02*
X114808000Y-105791000D01*
X114808000Y-105791000D02*
X121412000Y-105791000D01*
X121412000Y-105791000D02*
X121698000Y-105505000D01*
X121698000Y-105505000D02*
X121698000Y-103167000D01*
X121698000Y-94667000D02*
X121698000Y-103167000D01*
X105918000Y-67564000D02*
X105918000Y-66675000D01*
X105918000Y-66675000D02*
X107442006Y-65150994D01*
X107442006Y-65150994D02*
X109093000Y-65150994D01*
X109093000Y-65150994D02*
X111251994Y-65150994D01*
X105918000Y-67564000D02*
X103251000Y-67564000D01*
X103251000Y-67564000D02*
X102489000Y-68326000D01*
X102489000Y-68326000D02*
X102489000Y-69215000D01*
X111251994Y-65150994D02*
X111810800Y-65709800D01*
X111460001Y-65019187D02*
X111460001Y-65359001D01*
X111460001Y-65359001D02*
X111810800Y-65709800D01*
X111460001Y-65019187D02*
X111760000Y-64719188D01*
X111328194Y-65150994D02*
X111460001Y-65019187D01*
X111251994Y-65150994D02*
X111328194Y-65150994D01*
X108458000Y-73914000D02*
X108458000Y-72390000D01*
X108458000Y-77348000D02*
X108267500Y-77157500D01*
X108458000Y-77157500D02*
X108458000Y-73914000D01*
X108458000Y-73914000D02*
X108458000Y-74168000D01*
X107188000Y-73914000D02*
X107188000Y-72390032D01*
X105029000Y-77348000D02*
X105929000Y-77348000D01*
X105929000Y-77348000D02*
X107188000Y-76089000D01*
X107188000Y-76089000D02*
X107188000Y-74735500D01*
X107188000Y-74735500D02*
X107188000Y-73914000D01*
X107188000Y-74739500D02*
X107188000Y-74735500D01*
X113791999Y-104495600D02*
X113791999Y-105648000D01*
X113791999Y-105648000D02*
X114442999Y-106299000D01*
X114442999Y-106299000D02*
X135001000Y-106299000D01*
X135001000Y-106299000D02*
X135906000Y-105394000D01*
X135906000Y-105394000D02*
X135906000Y-103167000D01*
X135906000Y-94667000D02*
X135906000Y-103167000D01*
X107188000Y-67564000D02*
X107188000Y-66675000D01*
X107188000Y-66675000D02*
X108077000Y-65786000D01*
X108077000Y-65786000D02*
X110998000Y-65786000D01*
X110998000Y-65786000D02*
X113791999Y-68579999D01*
X113791999Y-68579999D02*
X113791999Y-74205414D01*
X113791999Y-74205414D02*
X113791999Y-104495600D01*
X102489000Y-72644000D02*
X103251000Y-72644000D01*
X103251000Y-72644000D02*
X107188000Y-68707000D01*
X107188000Y-68707000D02*
X107188000Y-67564000D01*
X113791999Y-104495600D02*
X113791999Y-104648000D01*
X107188000Y-67564000D02*
X107188000Y-67691000D01*
X101552500Y-77343000D02*
X101552500Y-76755500D01*
X101552500Y-76755500D02*
X104394000Y-73914000D01*
X104394000Y-73914000D02*
X105918000Y-73914000D01*
X108458000Y-67564000D02*
X108458000Y-66675000D01*
X108458000Y-66675000D02*
X108838998Y-66294002D01*
X108838998Y-66294002D02*
X110549004Y-66294002D01*
X112712500Y-77343000D02*
X111823500Y-77343000D01*
X110549004Y-66294002D02*
X113157000Y-68901998D01*
X113157000Y-68901998D02*
X113157000Y-76898500D01*
X113157000Y-76898500D02*
X112712500Y-77343000D01*
D22*
G36*
X124198000Y-87470257D02*
X124139402Y-87764848D01*
X123989377Y-87989377D01*
X123764848Y-88139402D01*
X123470257Y-88198000D01*
X120529743Y-88198000D01*
X120235152Y-88139402D01*
X120010623Y-87989377D01*
X119860598Y-87764848D01*
X119802000Y-87470257D01*
X119802000Y-66127000D01*
X124198000Y-66127000D01*
X124198000Y-87470257D01*
X124198000Y-87470257D01*
G37*
X124198000Y-87470257D02*
X124139402Y-87764848D01*
X123989377Y-87989377D01*
X123764848Y-88139402D01*
X123470257Y-88198000D01*
X120529743Y-88198000D01*
X120235152Y-88139402D01*
X120010623Y-87989377D01*
X119860598Y-87764848D01*
X119802000Y-87470257D01*
X119802000Y-66127000D01*
X124198000Y-66127000D01*
X124198000Y-87470257D01*
G36*
X137198000Y-87470257D02*
X137139402Y-87764848D01*
X136989377Y-87989377D01*
X136764848Y-88139402D01*
X136470257Y-88198000D01*
X133529743Y-88198000D01*
X133235152Y-88139402D01*
X133010623Y-87989377D01*
X132860598Y-87764848D01*
X132802000Y-87470257D01*
X132802000Y-66127000D01*
X137198000Y-66127000D01*
X137198000Y-87470257D01*
X137198000Y-87470257D01*
G37*
X137198000Y-87470257D02*
X137139402Y-87764848D01*
X136989377Y-87989377D01*
X136764848Y-88139402D01*
X136470257Y-88198000D01*
X133529743Y-88198000D01*
X133235152Y-88139402D01*
X133010623Y-87989377D01*
X132860598Y-87764848D01*
X132802000Y-87470257D01*
X132802000Y-66127000D01*
X137198000Y-66127000D01*
X137198000Y-87470257D01*
M02*
