G04 #@! TF.FileFunction,Soldermask,Top*
%FSLAX46Y46*%
G04 Gerber Fmt 4.6, Leading zero omitted, Abs format (unit mm)*
G04 Created by KiCad (PCBNEW 4.0.7) date 07/08/18 18:21:33*
%MOMM*%
%LPD*%
G01*
G04 APERTURE LIST*
%ADD10C,0.100000*%
%ADD11C,0.400000*%
%ADD12R,1.900000X1.900000*%
%ADD13R,1.650000X1.400000*%
%ADD14R,1.100000X1.700000*%
%ADD15R,1.700000X1.100000*%
%ADD16R,0.908000X1.543000*%
%ADD17R,1.400000X3.900000*%
%ADD18C,0.254000*%
G04 APERTURE END LIST*
D10*
D11*
X71701332Y-80968167D02*
X71867999Y-80968167D01*
X72034665Y-81051500D01*
X72117999Y-81134833D01*
X72201332Y-81301500D01*
X72284665Y-81634833D01*
X72284665Y-82051500D01*
X72201332Y-82384833D01*
X72117999Y-82551500D01*
X72034665Y-82634833D01*
X71867999Y-82718167D01*
X71701332Y-82718167D01*
X71534665Y-82634833D01*
X71451332Y-82551500D01*
X71367999Y-82384833D01*
X71284665Y-82051500D01*
X71284665Y-81634833D01*
X71367999Y-81301500D01*
X71451332Y-81134833D01*
X71534665Y-81051500D01*
X71701332Y-80968167D01*
X73784666Y-81551500D02*
X73784666Y-82718167D01*
X73367999Y-80884833D02*
X72951332Y-82134833D01*
X74034666Y-82134833D01*
X75534666Y-80968167D02*
X74701333Y-80968167D01*
X74617999Y-81801500D01*
X74701333Y-81718167D01*
X74867999Y-81634833D01*
X75284666Y-81634833D01*
X75451333Y-81718167D01*
X75534666Y-81801500D01*
X75617999Y-81968167D01*
X75617999Y-82384833D01*
X75534666Y-82551500D01*
X75451333Y-82634833D01*
X75284666Y-82718167D01*
X74867999Y-82718167D01*
X74701333Y-82634833D01*
X74617999Y-82551500D01*
X76451333Y-82718167D02*
X76784666Y-82718167D01*
X76951333Y-82634833D01*
X77034666Y-82551500D01*
X77201333Y-82301500D01*
X77284666Y-81968167D01*
X77284666Y-81301500D01*
X77201333Y-81134833D01*
X77118000Y-81051500D01*
X76951333Y-80968167D01*
X76618000Y-80968167D01*
X76451333Y-81051500D01*
X76368000Y-81134833D01*
X76284666Y-81301500D01*
X76284666Y-81718167D01*
X76368000Y-81884833D01*
X76451333Y-81968167D01*
X76618000Y-82051500D01*
X76951333Y-82051500D01*
X77118000Y-81968167D01*
X77201333Y-81884833D01*
X77284666Y-81718167D01*
X80201333Y-80968167D02*
X79368000Y-80968167D01*
X79284666Y-81801500D01*
X79368000Y-81718167D01*
X79534666Y-81634833D01*
X79951333Y-81634833D01*
X80118000Y-81718167D01*
X80201333Y-81801500D01*
X80284666Y-81968167D01*
X80284666Y-82384833D01*
X80201333Y-82551500D01*
X80118000Y-82634833D01*
X79951333Y-82718167D01*
X79534666Y-82718167D01*
X79368000Y-82634833D01*
X79284666Y-82551500D01*
X81118000Y-82718167D02*
X81451333Y-82718167D01*
X81618000Y-82634833D01*
X81701333Y-82551500D01*
X81868000Y-82301500D01*
X81951333Y-81968167D01*
X81951333Y-81301500D01*
X81868000Y-81134833D01*
X81784667Y-81051500D01*
X81618000Y-80968167D01*
X81284667Y-80968167D01*
X81118000Y-81051500D01*
X81034667Y-81134833D01*
X80951333Y-81301500D01*
X80951333Y-81718167D01*
X81034667Y-81884833D01*
X81118000Y-81968167D01*
X81284667Y-82051500D01*
X81618000Y-82051500D01*
X81784667Y-81968167D01*
X81868000Y-81884833D01*
X81951333Y-81718167D01*
X83034667Y-80968167D02*
X83201334Y-80968167D01*
X83368000Y-81051500D01*
X83451334Y-81134833D01*
X83534667Y-81301500D01*
X83618000Y-81634833D01*
X83618000Y-82051500D01*
X83534667Y-82384833D01*
X83451334Y-82551500D01*
X83368000Y-82634833D01*
X83201334Y-82718167D01*
X83034667Y-82718167D01*
X82868000Y-82634833D01*
X82784667Y-82551500D01*
X82701334Y-82384833D01*
X82618000Y-82051500D01*
X82618000Y-81634833D01*
X82701334Y-81301500D01*
X82784667Y-81134833D01*
X82868000Y-81051500D01*
X83034667Y-80968167D01*
X85784667Y-82718167D02*
X86118000Y-82718167D01*
X86284667Y-82634833D01*
X86368000Y-82551500D01*
X86534667Y-82301500D01*
X86618000Y-81968167D01*
X86618000Y-81301500D01*
X86534667Y-81134833D01*
X86451334Y-81051500D01*
X86284667Y-80968167D01*
X85951334Y-80968167D01*
X85784667Y-81051500D01*
X85701334Y-81134833D01*
X85618000Y-81301500D01*
X85618000Y-81718167D01*
X85701334Y-81884833D01*
X85784667Y-81968167D01*
X85951334Y-82051500D01*
X86284667Y-82051500D01*
X86451334Y-81968167D01*
X86534667Y-81884833D01*
X86618000Y-81718167D01*
X88284667Y-82718167D02*
X87284667Y-82718167D01*
X87784667Y-82718167D02*
X87784667Y-80968167D01*
X87618001Y-81218167D01*
X87451334Y-81384833D01*
X87284667Y-81468167D01*
X89118001Y-82718167D02*
X89451334Y-82718167D01*
X89618001Y-82634833D01*
X89701334Y-82551500D01*
X89868001Y-82301500D01*
X89951334Y-81968167D01*
X89951334Y-81301500D01*
X89868001Y-81134833D01*
X89784668Y-81051500D01*
X89618001Y-80968167D01*
X89284668Y-80968167D01*
X89118001Y-81051500D01*
X89034668Y-81134833D01*
X88951334Y-81301500D01*
X88951334Y-81718167D01*
X89034668Y-81884833D01*
X89118001Y-81968167D01*
X89284668Y-82051500D01*
X89618001Y-82051500D01*
X89784668Y-81968167D01*
X89868001Y-81884833D01*
X89951334Y-81718167D01*
D12*
X97562400Y-90678000D03*
X100862400Y-90678000D03*
D13*
X111887000Y-69882000D03*
X111887000Y-71882000D03*
D14*
X100589000Y-72644000D03*
X102489000Y-72644000D03*
X100589000Y-69215000D03*
X102489000Y-69215000D03*
D15*
X105029000Y-79248000D03*
X105029000Y-77348000D03*
X108458000Y-79248000D03*
X108458000Y-77348000D03*
X101552500Y-79243000D03*
X101552500Y-77343000D03*
X111823500Y-79243000D03*
X111823500Y-77343000D03*
D16*
X109728000Y-73914000D03*
X108458000Y-73914000D03*
X107188000Y-73914000D03*
X105918000Y-73914000D03*
X105918000Y-67564000D03*
X107188000Y-67564000D03*
X108458000Y-67564000D03*
X109728000Y-67564000D03*
D12*
X97000000Y-99650000D03*
X97000000Y-96350000D03*
X109000000Y-96350000D03*
X109000000Y-99650000D03*
X103000000Y-99650000D03*
X103000000Y-96350000D03*
X91000000Y-96350000D03*
X91000000Y-99650000D03*
X85000000Y-96350000D03*
X85000000Y-99650000D03*
X79000000Y-99650000D03*
X79000000Y-96350000D03*
X73000000Y-96350000D03*
X73000000Y-99650000D03*
X67000000Y-99650000D03*
X67000000Y-96350000D03*
D14*
X92232400Y-85598000D03*
X94132400Y-85598000D03*
X94168000Y-90678000D03*
X92268000Y-90678000D03*
D12*
X97538000Y-85598000D03*
X100838000Y-85598000D03*
D17*
X121698000Y-103167000D03*
X125698000Y-103167000D03*
X121698000Y-94667000D03*
X125698000Y-94667000D03*
X135906000Y-103167000D03*
X139906000Y-103167000D03*
X135906000Y-94667000D03*
X139906000Y-94667000D03*
D18*
G36*
X124623000Y-88623000D02*
X119377000Y-88623000D01*
X119377000Y-66127000D01*
X124623000Y-66127000D01*
X124623000Y-88623000D01*
X124623000Y-88623000D01*
G37*
X124623000Y-88623000D02*
X119377000Y-88623000D01*
X119377000Y-66127000D01*
X124623000Y-66127000D01*
X124623000Y-88623000D01*
G36*
X137667749Y-88646000D02*
X132421750Y-88646000D01*
X132377251Y-66127000D01*
X137623250Y-66127000D01*
X137667749Y-88646000D01*
X137667749Y-88646000D01*
G37*
X137667749Y-88646000D02*
X132421750Y-88646000D01*
X132377251Y-66127000D01*
X137623250Y-66127000D01*
X137667749Y-88646000D01*
M02*
