G04 #@! TF.FileFunction,Copper,L2,Bot,Signal*
%FSLAX46Y46*%
G04 Gerber Fmt 4.6, Leading zero omitted, Abs format (unit mm)*
G04 Created by KiCad (PCBNEW 4.0.7) date 07/08/18 18:21:33*
%MOMM*%
%LPD*%
G01*
G04 APERTURE LIST*
%ADD10C,0.100000*%
%ADD11C,0.700000*%
%ADD12R,1.700000X1.700000*%
%ADD13O,1.700000X1.700000*%
%ADD14C,0.600000*%
%ADD15C,0.500000*%
%ADD16C,0.250000*%
%ADD17C,0.254000*%
G04 APERTURE END LIST*
D10*
D11*
X120531191Y-85883714D02*
X123578810Y-85883714D01*
X133517191Y-85883714D02*
X136564810Y-85883714D01*
D12*
X112000000Y-58000000D03*
D13*
X109460000Y-58000000D03*
X106920000Y-58000000D03*
X104380000Y-58000000D03*
X101840000Y-58000000D03*
D14*
X111887000Y-68707000D03*
X115062000Y-71120000D03*
X128587500Y-89979490D03*
X139906000Y-98933000D03*
X125698000Y-98933000D03*
X111887000Y-73025000D03*
X122000000Y-65000000D03*
X135000000Y-65000000D03*
X111760000Y-64719188D03*
X108458000Y-72390000D03*
X107188000Y-72390032D03*
D15*
X112268000Y-68326000D02*
X111887000Y-68707000D01*
D16*
X112186999Y-68407001D02*
X112268000Y-68326000D01*
D15*
X128587500Y-84391500D02*
X128587500Y-89999736D01*
D16*
X128587500Y-89999736D02*
X128587500Y-89979490D01*
D15*
X109460000Y-65518000D02*
X110998000Y-67056000D01*
X110998000Y-67056000D02*
X112014000Y-68072000D01*
X109460000Y-58000000D02*
X109460000Y-65518000D01*
X112014000Y-68072000D02*
X112268000Y-68326000D01*
X112268000Y-68326000D02*
X113030000Y-69088000D01*
X112902992Y-68960992D02*
X115062000Y-71120000D01*
X122000000Y-64374999D02*
X122000000Y-65000000D01*
X135000000Y-64300000D02*
X135000000Y-65000000D01*
X135000000Y-59300000D02*
X135000000Y-64300000D01*
D16*
X134600000Y-58900000D02*
X135000000Y-59300000D01*
D15*
X122000000Y-58900000D02*
X122000000Y-64374999D01*
D16*
X122000000Y-57000000D02*
X122000000Y-58900000D01*
X122000000Y-58900000D02*
X134600000Y-58900000D01*
X121380000Y-56380000D02*
X122000000Y-57000000D01*
X106920000Y-56380000D02*
X121380000Y-56380000D01*
X106920000Y-58000000D02*
X106920000Y-56380000D01*
X106920000Y-58000000D02*
X106920000Y-56797919D01*
X112000000Y-64479188D02*
X111760000Y-64719188D01*
X112000000Y-58000000D02*
X112000000Y-64479188D01*
X104380000Y-58000000D02*
X104380000Y-67931000D01*
X104380000Y-67931000D02*
X108458000Y-72009000D01*
X108458000Y-72009000D02*
X108458000Y-72390000D01*
X101840000Y-58000000D02*
X102069000Y-58000000D01*
X107188000Y-71501000D02*
X107188000Y-72390032D01*
X102069000Y-58000000D02*
X103759000Y-59690000D01*
X103759000Y-59690000D02*
X103759000Y-68072000D01*
X103759000Y-68072000D02*
X107188000Y-71501000D01*
D17*
G36*
X143030215Y-55512838D02*
X143903591Y-56096411D01*
X144487162Y-56969785D01*
X144698000Y-58029744D01*
X144698000Y-105970256D01*
X144487162Y-107030215D01*
X143903591Y-107903589D01*
X143030215Y-108487162D01*
X141970257Y-108698000D01*
X63029744Y-108698000D01*
X61969785Y-108487162D01*
X61096411Y-107903591D01*
X60512838Y-107030215D01*
X60302000Y-105970257D01*
X60302000Y-58029743D01*
X60312502Y-57976941D01*
X100663000Y-57976941D01*
X100663000Y-58023059D01*
X100752594Y-58473477D01*
X101007735Y-58855324D01*
X101389582Y-59110465D01*
X101840000Y-59200059D01*
X102290418Y-59110465D01*
X102440176Y-59010400D01*
X103307000Y-59877224D01*
X103307000Y-68072000D01*
X103341406Y-68244973D01*
X103439388Y-68391612D01*
X106736000Y-71688224D01*
X106736000Y-71955304D01*
X106656765Y-72034401D01*
X106561109Y-72264767D01*
X106560891Y-72514203D01*
X106656145Y-72744735D01*
X106832369Y-72921267D01*
X107062735Y-73016923D01*
X107312171Y-73017141D01*
X107542703Y-72921887D01*
X107719235Y-72745663D01*
X107814891Y-72515297D01*
X107815109Y-72265861D01*
X107719855Y-72035329D01*
X107640000Y-71955334D01*
X107640000Y-71830224D01*
X107902524Y-72092748D01*
X107831109Y-72264735D01*
X107830891Y-72514171D01*
X107926145Y-72744703D01*
X108102369Y-72921235D01*
X108332735Y-73016891D01*
X108582171Y-73017109D01*
X108812703Y-72921855D01*
X108989235Y-72745631D01*
X109084891Y-72515265D01*
X109085109Y-72265829D01*
X108989855Y-72035297D01*
X108896661Y-71941940D01*
X108875594Y-71836027D01*
X108777612Y-71689388D01*
X104832000Y-67743776D01*
X104832000Y-59109408D01*
X105212265Y-58855324D01*
X105467406Y-58473477D01*
X105487001Y-58374965D01*
X105724817Y-58881358D01*
X106153076Y-59271645D01*
X106563110Y-59441476D01*
X106793000Y-59320155D01*
X106793000Y-58127000D01*
X106773000Y-58127000D01*
X106773000Y-57873000D01*
X106793000Y-57873000D01*
X106793000Y-56679845D01*
X107047000Y-56679845D01*
X107047000Y-57873000D01*
X107067000Y-57873000D01*
X107067000Y-58127000D01*
X107047000Y-58127000D01*
X107047000Y-59320155D01*
X107276890Y-59441476D01*
X107686924Y-59271645D01*
X108115183Y-58881358D01*
X108352999Y-58374965D01*
X108372594Y-58473477D01*
X108627735Y-58855324D01*
X108883000Y-59025886D01*
X108883000Y-65517995D01*
X108882999Y-65518000D01*
X108926922Y-65738808D01*
X109051999Y-65926001D01*
X110589997Y-67463998D01*
X110589999Y-67464001D01*
X111416619Y-68290621D01*
X111355765Y-68351369D01*
X111260109Y-68581735D01*
X111259891Y-68831171D01*
X111355145Y-69061703D01*
X111531369Y-69238235D01*
X111761735Y-69333891D01*
X112011171Y-69334109D01*
X112241703Y-69238855D01*
X112303332Y-69177333D01*
X112494989Y-69368990D01*
X112494991Y-69368993D01*
X114480463Y-71354464D01*
X114530145Y-71474703D01*
X114706369Y-71651235D01*
X114936735Y-71746891D01*
X115186171Y-71747109D01*
X115416703Y-71651855D01*
X115593235Y-71475631D01*
X115688891Y-71245265D01*
X115689109Y-70995829D01*
X115593855Y-70765297D01*
X115417631Y-70588765D01*
X115296446Y-70538445D01*
X113310993Y-68552991D01*
X113310990Y-68552989D01*
X112676001Y-67917999D01*
X112675998Y-67917997D01*
X112422001Y-67663999D01*
X111406001Y-66647999D01*
X111405998Y-66647997D01*
X110037000Y-65278998D01*
X110037000Y-59025886D01*
X110292265Y-58855324D01*
X110547406Y-58473477D01*
X110637000Y-58023059D01*
X110637000Y-57976941D01*
X110547406Y-57526523D01*
X110295823Y-57150000D01*
X110816594Y-57150000D01*
X110816594Y-58850000D01*
X110839395Y-58971179D01*
X110911012Y-59082474D01*
X111020286Y-59157138D01*
X111150000Y-59183406D01*
X111548000Y-59183406D01*
X111548000Y-64128369D01*
X111405297Y-64187333D01*
X111228765Y-64363557D01*
X111133109Y-64593923D01*
X111132891Y-64843359D01*
X111228145Y-65073891D01*
X111404369Y-65250423D01*
X111634735Y-65346079D01*
X111884171Y-65346297D01*
X112114703Y-65251043D01*
X112291235Y-65074819D01*
X112386891Y-64844453D01*
X112387019Y-64697919D01*
X112417594Y-64652161D01*
X112429178Y-64593923D01*
X112452000Y-64479188D01*
X112452000Y-62000000D01*
X117698000Y-62000000D01*
X117698000Y-88500000D01*
X117703803Y-88529174D01*
X117703803Y-88558917D01*
X117856044Y-89324283D01*
X117856044Y-89324285D01*
X117901137Y-89433149D01*
X118334681Y-90081994D01*
X118334682Y-90081997D01*
X118418004Y-90165318D01*
X119066851Y-90598863D01*
X119175715Y-90643956D01*
X119175716Y-90643956D01*
X119941082Y-90796197D01*
X119970826Y-90796197D01*
X120000000Y-90802000D01*
X124000000Y-90802000D01*
X124029174Y-90796197D01*
X124058917Y-90796197D01*
X124653133Y-90678000D01*
X132346866Y-90678000D01*
X132941082Y-90796197D01*
X132970826Y-90796197D01*
X133000000Y-90802000D01*
X137000000Y-90802000D01*
X137029174Y-90796197D01*
X137058917Y-90796197D01*
X137824284Y-90643956D01*
X137824285Y-90643956D01*
X137933149Y-90598863D01*
X138581994Y-90165319D01*
X138581997Y-90165318D01*
X138665318Y-90081996D01*
X139098863Y-89433149D01*
X139143956Y-89324285D01*
X139143956Y-89324283D01*
X139296197Y-88558918D01*
X139296197Y-88529174D01*
X139302000Y-88500000D01*
X139302000Y-62000000D01*
X139296197Y-61970826D01*
X139296197Y-61941083D01*
X139239107Y-61654070D01*
X139239107Y-61654068D01*
X139223634Y-61616713D01*
X139194015Y-61545205D01*
X139194011Y-61545201D01*
X139031433Y-61301887D01*
X138948113Y-61218566D01*
X138704796Y-61055987D01*
X138704795Y-61055986D01*
X138641024Y-61029571D01*
X138595931Y-61010893D01*
X138595930Y-61010893D01*
X138308917Y-60953803D01*
X138191083Y-60953803D01*
X137904070Y-61010893D01*
X137904068Y-61010893D01*
X137866713Y-61026366D01*
X137795205Y-61055985D01*
X137795201Y-61055989D01*
X137769742Y-61073000D01*
X132230258Y-61073000D01*
X132204796Y-61055987D01*
X132204795Y-61055986D01*
X132141024Y-61029571D01*
X132095931Y-61010893D01*
X132095930Y-61010893D01*
X131808917Y-60953803D01*
X131779174Y-60953803D01*
X131750000Y-60948000D01*
X125250000Y-60948000D01*
X125220826Y-60953803D01*
X125191083Y-60953803D01*
X124904070Y-61010893D01*
X124904068Y-61010893D01*
X124866713Y-61026366D01*
X124795205Y-61055985D01*
X124795201Y-61055989D01*
X124769742Y-61073000D01*
X119230258Y-61073000D01*
X119204796Y-61055987D01*
X119204795Y-61055986D01*
X119141024Y-61029571D01*
X119095931Y-61010893D01*
X119095930Y-61010893D01*
X118808917Y-60953803D01*
X118691083Y-60953803D01*
X118404070Y-61010893D01*
X118404068Y-61010893D01*
X118366713Y-61026366D01*
X118295205Y-61055985D01*
X118295201Y-61055989D01*
X118051889Y-61218565D01*
X118051888Y-61218566D01*
X117968566Y-61301887D01*
X117805987Y-61545204D01*
X117805986Y-61545205D01*
X117800606Y-61558194D01*
X117760894Y-61654068D01*
X117760893Y-61654070D01*
X117703803Y-61941083D01*
X117703803Y-61970826D01*
X117698000Y-62000000D01*
X112452000Y-62000000D01*
X112452000Y-59183406D01*
X112850000Y-59183406D01*
X112971179Y-59160605D01*
X113082474Y-59088988D01*
X113157138Y-58979714D01*
X113183406Y-58850000D01*
X113183406Y-57150000D01*
X113160605Y-57028821D01*
X113088988Y-56917526D01*
X112979714Y-56842862D01*
X112850000Y-56816594D01*
X111150000Y-56816594D01*
X111028821Y-56839395D01*
X110917526Y-56911012D01*
X110842862Y-57020286D01*
X110816594Y-57150000D01*
X110295823Y-57150000D01*
X110292265Y-57144676D01*
X109910418Y-56889535D01*
X109460000Y-56799941D01*
X109009582Y-56889535D01*
X108627735Y-57144676D01*
X108372594Y-57526523D01*
X108352999Y-57625035D01*
X108115183Y-57118642D01*
X107686924Y-56728355D01*
X107276890Y-56558524D01*
X107047000Y-56679845D01*
X106793000Y-56679845D01*
X106563110Y-56558524D01*
X106153076Y-56728355D01*
X105724817Y-57118642D01*
X105487001Y-57625035D01*
X105467406Y-57526523D01*
X105212265Y-57144676D01*
X104830418Y-56889535D01*
X104380000Y-56799941D01*
X103929582Y-56889535D01*
X103547735Y-57144676D01*
X103292594Y-57526523D01*
X103203000Y-57976941D01*
X103203000Y-58023059D01*
X103292594Y-58473477D01*
X103515893Y-58807669D01*
X102969596Y-58261372D01*
X103017000Y-58023059D01*
X103017000Y-57976941D01*
X102927406Y-57526523D01*
X102672265Y-57144676D01*
X102290418Y-56889535D01*
X101840000Y-56799941D01*
X101389582Y-56889535D01*
X101007735Y-57144676D01*
X100752594Y-57526523D01*
X100663000Y-57976941D01*
X60312502Y-57976941D01*
X60512838Y-56969785D01*
X61096411Y-56096409D01*
X61969785Y-55512838D01*
X63029744Y-55302000D01*
X141970257Y-55302000D01*
X143030215Y-55512838D01*
X143030215Y-55512838D01*
G37*
X143030215Y-55512838D02*
X143903591Y-56096411D01*
X144487162Y-56969785D01*
X144698000Y-58029744D01*
X144698000Y-105970256D01*
X144487162Y-107030215D01*
X143903591Y-107903589D01*
X143030215Y-108487162D01*
X141970257Y-108698000D01*
X63029744Y-108698000D01*
X61969785Y-108487162D01*
X61096411Y-107903591D01*
X60512838Y-107030215D01*
X60302000Y-105970257D01*
X60302000Y-58029743D01*
X60312502Y-57976941D01*
X100663000Y-57976941D01*
X100663000Y-58023059D01*
X100752594Y-58473477D01*
X101007735Y-58855324D01*
X101389582Y-59110465D01*
X101840000Y-59200059D01*
X102290418Y-59110465D01*
X102440176Y-59010400D01*
X103307000Y-59877224D01*
X103307000Y-68072000D01*
X103341406Y-68244973D01*
X103439388Y-68391612D01*
X106736000Y-71688224D01*
X106736000Y-71955304D01*
X106656765Y-72034401D01*
X106561109Y-72264767D01*
X106560891Y-72514203D01*
X106656145Y-72744735D01*
X106832369Y-72921267D01*
X107062735Y-73016923D01*
X107312171Y-73017141D01*
X107542703Y-72921887D01*
X107719235Y-72745663D01*
X107814891Y-72515297D01*
X107815109Y-72265861D01*
X107719855Y-72035329D01*
X107640000Y-71955334D01*
X107640000Y-71830224D01*
X107902524Y-72092748D01*
X107831109Y-72264735D01*
X107830891Y-72514171D01*
X107926145Y-72744703D01*
X108102369Y-72921235D01*
X108332735Y-73016891D01*
X108582171Y-73017109D01*
X108812703Y-72921855D01*
X108989235Y-72745631D01*
X109084891Y-72515265D01*
X109085109Y-72265829D01*
X108989855Y-72035297D01*
X108896661Y-71941940D01*
X108875594Y-71836027D01*
X108777612Y-71689388D01*
X104832000Y-67743776D01*
X104832000Y-59109408D01*
X105212265Y-58855324D01*
X105467406Y-58473477D01*
X105487001Y-58374965D01*
X105724817Y-58881358D01*
X106153076Y-59271645D01*
X106563110Y-59441476D01*
X106793000Y-59320155D01*
X106793000Y-58127000D01*
X106773000Y-58127000D01*
X106773000Y-57873000D01*
X106793000Y-57873000D01*
X106793000Y-56679845D01*
X107047000Y-56679845D01*
X107047000Y-57873000D01*
X107067000Y-57873000D01*
X107067000Y-58127000D01*
X107047000Y-58127000D01*
X107047000Y-59320155D01*
X107276890Y-59441476D01*
X107686924Y-59271645D01*
X108115183Y-58881358D01*
X108352999Y-58374965D01*
X108372594Y-58473477D01*
X108627735Y-58855324D01*
X108883000Y-59025886D01*
X108883000Y-65517995D01*
X108882999Y-65518000D01*
X108926922Y-65738808D01*
X109051999Y-65926001D01*
X110589997Y-67463998D01*
X110589999Y-67464001D01*
X111416619Y-68290621D01*
X111355765Y-68351369D01*
X111260109Y-68581735D01*
X111259891Y-68831171D01*
X111355145Y-69061703D01*
X111531369Y-69238235D01*
X111761735Y-69333891D01*
X112011171Y-69334109D01*
X112241703Y-69238855D01*
X112303332Y-69177333D01*
X112494989Y-69368990D01*
X112494991Y-69368993D01*
X114480463Y-71354464D01*
X114530145Y-71474703D01*
X114706369Y-71651235D01*
X114936735Y-71746891D01*
X115186171Y-71747109D01*
X115416703Y-71651855D01*
X115593235Y-71475631D01*
X115688891Y-71245265D01*
X115689109Y-70995829D01*
X115593855Y-70765297D01*
X115417631Y-70588765D01*
X115296446Y-70538445D01*
X113310993Y-68552991D01*
X113310990Y-68552989D01*
X112676001Y-67917999D01*
X112675998Y-67917997D01*
X112422001Y-67663999D01*
X111406001Y-66647999D01*
X111405998Y-66647997D01*
X110037000Y-65278998D01*
X110037000Y-59025886D01*
X110292265Y-58855324D01*
X110547406Y-58473477D01*
X110637000Y-58023059D01*
X110637000Y-57976941D01*
X110547406Y-57526523D01*
X110295823Y-57150000D01*
X110816594Y-57150000D01*
X110816594Y-58850000D01*
X110839395Y-58971179D01*
X110911012Y-59082474D01*
X111020286Y-59157138D01*
X111150000Y-59183406D01*
X111548000Y-59183406D01*
X111548000Y-64128369D01*
X111405297Y-64187333D01*
X111228765Y-64363557D01*
X111133109Y-64593923D01*
X111132891Y-64843359D01*
X111228145Y-65073891D01*
X111404369Y-65250423D01*
X111634735Y-65346079D01*
X111884171Y-65346297D01*
X112114703Y-65251043D01*
X112291235Y-65074819D01*
X112386891Y-64844453D01*
X112387019Y-64697919D01*
X112417594Y-64652161D01*
X112429178Y-64593923D01*
X112452000Y-64479188D01*
X112452000Y-62000000D01*
X117698000Y-62000000D01*
X117698000Y-88500000D01*
X117703803Y-88529174D01*
X117703803Y-88558917D01*
X117856044Y-89324283D01*
X117856044Y-89324285D01*
X117901137Y-89433149D01*
X118334681Y-90081994D01*
X118334682Y-90081997D01*
X118418004Y-90165318D01*
X119066851Y-90598863D01*
X119175715Y-90643956D01*
X119175716Y-90643956D01*
X119941082Y-90796197D01*
X119970826Y-90796197D01*
X120000000Y-90802000D01*
X124000000Y-90802000D01*
X124029174Y-90796197D01*
X124058917Y-90796197D01*
X124653133Y-90678000D01*
X132346866Y-90678000D01*
X132941082Y-90796197D01*
X132970826Y-90796197D01*
X133000000Y-90802000D01*
X137000000Y-90802000D01*
X137029174Y-90796197D01*
X137058917Y-90796197D01*
X137824284Y-90643956D01*
X137824285Y-90643956D01*
X137933149Y-90598863D01*
X138581994Y-90165319D01*
X138581997Y-90165318D01*
X138665318Y-90081996D01*
X139098863Y-89433149D01*
X139143956Y-89324285D01*
X139143956Y-89324283D01*
X139296197Y-88558918D01*
X139296197Y-88529174D01*
X139302000Y-88500000D01*
X139302000Y-62000000D01*
X139296197Y-61970826D01*
X139296197Y-61941083D01*
X139239107Y-61654070D01*
X139239107Y-61654068D01*
X139223634Y-61616713D01*
X139194015Y-61545205D01*
X139194011Y-61545201D01*
X139031433Y-61301887D01*
X138948113Y-61218566D01*
X138704796Y-61055987D01*
X138704795Y-61055986D01*
X138641024Y-61029571D01*
X138595931Y-61010893D01*
X138595930Y-61010893D01*
X138308917Y-60953803D01*
X138191083Y-60953803D01*
X137904070Y-61010893D01*
X137904068Y-61010893D01*
X137866713Y-61026366D01*
X137795205Y-61055985D01*
X137795201Y-61055989D01*
X137769742Y-61073000D01*
X132230258Y-61073000D01*
X132204796Y-61055987D01*
X132204795Y-61055986D01*
X132141024Y-61029571D01*
X132095931Y-61010893D01*
X132095930Y-61010893D01*
X131808917Y-60953803D01*
X131779174Y-60953803D01*
X131750000Y-60948000D01*
X125250000Y-60948000D01*
X125220826Y-60953803D01*
X125191083Y-60953803D01*
X124904070Y-61010893D01*
X124904068Y-61010893D01*
X124866713Y-61026366D01*
X124795205Y-61055985D01*
X124795201Y-61055989D01*
X124769742Y-61073000D01*
X119230258Y-61073000D01*
X119204796Y-61055987D01*
X119204795Y-61055986D01*
X119141024Y-61029571D01*
X119095931Y-61010893D01*
X119095930Y-61010893D01*
X118808917Y-60953803D01*
X118691083Y-60953803D01*
X118404070Y-61010893D01*
X118404068Y-61010893D01*
X118366713Y-61026366D01*
X118295205Y-61055985D01*
X118295201Y-61055989D01*
X118051889Y-61218565D01*
X118051888Y-61218566D01*
X117968566Y-61301887D01*
X117805987Y-61545204D01*
X117805986Y-61545205D01*
X117800606Y-61558194D01*
X117760894Y-61654068D01*
X117760893Y-61654070D01*
X117703803Y-61941083D01*
X117703803Y-61970826D01*
X117698000Y-62000000D01*
X112452000Y-62000000D01*
X112452000Y-59183406D01*
X112850000Y-59183406D01*
X112971179Y-59160605D01*
X113082474Y-59088988D01*
X113157138Y-58979714D01*
X113183406Y-58850000D01*
X113183406Y-57150000D01*
X113160605Y-57028821D01*
X113088988Y-56917526D01*
X112979714Y-56842862D01*
X112850000Y-56816594D01*
X111150000Y-56816594D01*
X111028821Y-56839395D01*
X110917526Y-56911012D01*
X110842862Y-57020286D01*
X110816594Y-57150000D01*
X110295823Y-57150000D01*
X110292265Y-57144676D01*
X109910418Y-56889535D01*
X109460000Y-56799941D01*
X109009582Y-56889535D01*
X108627735Y-57144676D01*
X108372594Y-57526523D01*
X108352999Y-57625035D01*
X108115183Y-57118642D01*
X107686924Y-56728355D01*
X107276890Y-56558524D01*
X107047000Y-56679845D01*
X106793000Y-56679845D01*
X106563110Y-56558524D01*
X106153076Y-56728355D01*
X105724817Y-57118642D01*
X105487001Y-57625035D01*
X105467406Y-57526523D01*
X105212265Y-57144676D01*
X104830418Y-56889535D01*
X104380000Y-56799941D01*
X103929582Y-56889535D01*
X103547735Y-57144676D01*
X103292594Y-57526523D01*
X103203000Y-57976941D01*
X103203000Y-58023059D01*
X103292594Y-58473477D01*
X103515893Y-58807669D01*
X102969596Y-58261372D01*
X103017000Y-58023059D01*
X103017000Y-57976941D01*
X102927406Y-57526523D01*
X102672265Y-57144676D01*
X102290418Y-56889535D01*
X101840000Y-56799941D01*
X101389582Y-56889535D01*
X101007735Y-57144676D01*
X100752594Y-57526523D01*
X100663000Y-57976941D01*
X60312502Y-57976941D01*
X60512838Y-56969785D01*
X61096411Y-56096409D01*
X61969785Y-55512838D01*
X63029744Y-55302000D01*
X141970257Y-55302000D01*
X143030215Y-55512838D01*
G36*
X130264848Y-75860598D02*
X130489377Y-76010623D01*
X130639402Y-76235152D01*
X130698000Y-76529743D01*
X130698000Y-87973000D01*
X126302000Y-87973000D01*
X126302000Y-76529743D01*
X126360598Y-76235152D01*
X126510623Y-76010623D01*
X126735152Y-75860598D01*
X127029743Y-75802000D01*
X129970257Y-75802000D01*
X130264848Y-75860598D01*
X130264848Y-75860598D01*
G37*
X130264848Y-75860598D02*
X130489377Y-76010623D01*
X130639402Y-76235152D01*
X130698000Y-76529743D01*
X130698000Y-87973000D01*
X126302000Y-87973000D01*
X126302000Y-76529743D01*
X126360598Y-76235152D01*
X126510623Y-76010623D01*
X126735152Y-75860598D01*
X127029743Y-75802000D01*
X129970257Y-75802000D01*
X130264848Y-75860598D01*
M02*
