%FSLAX45Y45*%
G04 Gerber Fmt 4.5, Leading zero omitted, Abs format (unit mm)*
G04 Created by KiCad (PCBNEW 4.0.7) date 06/26/18 11:22:31*
%MOMM*%
%LPD*%
G01*
G04 APERTURE LIST*
%ADD10C,0.127000*%
%ADD11C,0.150000*%
%ADD12C,0.200000*%
%ADD13C,0.300000*%
G04 APERTURE END LIST*
D10*
D11*
X12600000Y-5800000D02*
G75*
G03X12500000Y-5900000I0J-100000D01*
G01*
X13500000Y-5900000D02*
G75*
G03X13400000Y-5800000I-100000J0D01*
G01*
X13400000Y-5800000D02*
X12600000Y-5800000D01*
X13600000Y-8850000D02*
X13900000Y-8850000D01*
X12100000Y-8850000D02*
X12400000Y-8850000D01*
X12000000Y-8750000D02*
X12000000Y-8750000D01*
X12500000Y-5900000D02*
X12500000Y-8750000D01*
X12400000Y-8850000D02*
G75*
G03X12500000Y-8750000I0J100000D01*
G01*
X12000000Y-8750000D02*
G75*
G03X12100000Y-8850000I100000J0D01*
G01*
X13900000Y-8850000D02*
G75*
G03X14000000Y-8750000I0J100000D01*
G01*
X14000000Y-5900000D02*
X14000000Y-8750000D01*
X14200000Y-5900000D02*
X14200000Y-6000000D01*
X14200000Y-5900000D02*
G75*
G03X14100000Y-5800000I-100000J0D01*
G01*
X14100000Y-5800000D02*
G75*
G03X14000000Y-5900000I0J-100000D01*
G01*
X11800000Y-5900000D02*
X11800000Y-6000000D01*
X12000000Y-5900000D02*
G75*
G03X11900000Y-5800000I-100000J0D01*
G01*
X11900000Y-5800000D02*
G75*
G03X11800000Y-5900000I0J-100000D01*
G01*
X12000000Y-5900000D02*
X12000000Y-8750000D01*
X13500000Y-8750000D02*
G75*
G03X13600000Y-8850000I100000J0D01*
G01*
X13500000Y-5900000D02*
X13500000Y-8750000D01*
X12500000Y-9050000D02*
G75*
G03X12700000Y-8850000I0J200000D01*
G01*
X13300000Y-8850000D02*
G75*
G03X13500000Y-9050000I200000J0D01*
G01*
X13200000Y-7550000D02*
X12800000Y-7550000D01*
X12800000Y-7550000D02*
G75*
G03X12700000Y-7650000I0J-100000D01*
G01*
X13300000Y-7650000D02*
G75*
G03X13200000Y-7550000I-100000J0D01*
G01*
X14000000Y-9050000D02*
X13500000Y-9050000D01*
X13300000Y-8850000D02*
X13300000Y-7650000D01*
X12500000Y-9050000D02*
X12000000Y-9050000D01*
X12700000Y-8850000D02*
X12700000Y-7650000D01*
X11800000Y-6000000D02*
X11800000Y-8850000D01*
X11800000Y-8850000D02*
G75*
G03X12000000Y-9050000I200000J0D01*
G01*
X14000000Y-9050000D02*
G75*
G03X14200000Y-8850000I0J200000D01*
G01*
X14200000Y-6000000D02*
X14200000Y-8850000D01*
X14200000Y-10900000D02*
G75*
G03X14500000Y-10600000I0J300000D01*
G01*
X14500000Y-5800000D02*
G75*
G03X14200000Y-5500000I-300000J0D01*
G01*
X6000000Y-10600000D02*
G75*
G03X6300000Y-10900000I300000J0D01*
G01*
X6300000Y-5500000D02*
G75*
G03X6000000Y-5800000I0J-300000D01*
G01*
X6300000Y-10900000D02*
X14200000Y-10900000D01*
X6000000Y-10600000D02*
X6000000Y-5800000D01*
X14500000Y-5800000D02*
X14500000Y-10600000D01*
X6300000Y-5500000D02*
X14200000Y-5500000D01*
D12*
X10038400Y-7071681D02*
X10078400Y-7111681D01*
X10078400Y-7071681D02*
X10038400Y-7111681D01*
X10326757Y-6574346D02*
X10366757Y-6614346D01*
X10366757Y-6574346D02*
X10326757Y-6614346D01*
X10355900Y-6901500D02*
X10395900Y-6941500D01*
X10395900Y-6901500D02*
X10355900Y-6941500D01*
X10406700Y-6571300D02*
X10446700Y-6611300D01*
X10446700Y-6571300D02*
X10406700Y-6611300D01*
X10552935Y-7123566D02*
X10592935Y-7163566D01*
X10592935Y-7123566D02*
X10552935Y-7163566D01*
X10571800Y-6901500D02*
X10611800Y-6941500D01*
X10611800Y-6901500D02*
X10571800Y-6941500D01*
X10698800Y-6914201D02*
X10738800Y-6954201D01*
X10738800Y-6914201D02*
X10698800Y-6954201D01*
X11156000Y-6451919D02*
X11196000Y-6491919D01*
X11196000Y-6451919D02*
X11156000Y-6491919D01*
X11168700Y-6876099D02*
X11208700Y-6916099D01*
X11208700Y-6876099D02*
X11168700Y-6916099D01*
X11168700Y-7257100D02*
X11208700Y-7297100D01*
X11208700Y-7257100D02*
X11168700Y-7297100D01*
X11435400Y-5606099D02*
X11475400Y-5646099D01*
X11475400Y-5606099D02*
X11435400Y-5646099D01*
X11485201Y-7257100D02*
X11525201Y-7297100D01*
X11525201Y-7257100D02*
X11485201Y-7297100D01*
D13*
X6263928Y-11373214D02*
X6263928Y-11073214D01*
X6335357Y-11073214D01*
X6378214Y-11087500D01*
X6406786Y-11116072D01*
X6421071Y-11144643D01*
X6435357Y-11201786D01*
X6435357Y-11244643D01*
X6421071Y-11301786D01*
X6406786Y-11330357D01*
X6378214Y-11358929D01*
X6335357Y-11373214D01*
X6263928Y-11373214D01*
X6563928Y-11373214D02*
X6563928Y-11173214D01*
X6563928Y-11230357D02*
X6578214Y-11201786D01*
X6592500Y-11187500D01*
X6621071Y-11173214D01*
X6649643Y-11173214D01*
X6749643Y-11373214D02*
X6749643Y-11173214D01*
X6749643Y-11073214D02*
X6735357Y-11087500D01*
X6749643Y-11101786D01*
X6763928Y-11087500D01*
X6749643Y-11073214D01*
X6749643Y-11101786D01*
X6935357Y-11373214D02*
X6906786Y-11358929D01*
X6892500Y-11330357D01*
X6892500Y-11073214D01*
X7092500Y-11373214D02*
X7063928Y-11358929D01*
X7049643Y-11330357D01*
X7049643Y-11073214D01*
X7435357Y-11373214D02*
X7435357Y-11073214D01*
X7535357Y-11287500D01*
X7635357Y-11073214D01*
X7635357Y-11373214D01*
X7906786Y-11373214D02*
X7906786Y-11216071D01*
X7892500Y-11187500D01*
X7863928Y-11173214D01*
X7806786Y-11173214D01*
X7778214Y-11187500D01*
X7906786Y-11358929D02*
X7878214Y-11373214D01*
X7806786Y-11373214D01*
X7778214Y-11358929D01*
X7763928Y-11330357D01*
X7763928Y-11301786D01*
X7778214Y-11273214D01*
X7806786Y-11258929D01*
X7878214Y-11258929D01*
X7906786Y-11244643D01*
X8049643Y-11173214D02*
X8049643Y-11473214D01*
X8049643Y-11187500D02*
X8078214Y-11173214D01*
X8135357Y-11173214D01*
X8163928Y-11187500D01*
X8178214Y-11201786D01*
X8192500Y-11230357D01*
X8192500Y-11316071D01*
X8178214Y-11344643D01*
X8163928Y-11358929D01*
X8135357Y-11373214D01*
X8078214Y-11373214D01*
X8049643Y-11358929D01*
X8321071Y-11344643D02*
X8335357Y-11358929D01*
X8321071Y-11373214D01*
X8306786Y-11358929D01*
X8321071Y-11344643D01*
X8321071Y-11373214D01*
X8321071Y-11187500D02*
X8335357Y-11201786D01*
X8321071Y-11216071D01*
X8306786Y-11201786D01*
X8321071Y-11187500D01*
X8321071Y-11216071D01*
X5952500Y-11847500D02*
X5992500Y-11887500D01*
X5992500Y-11847500D02*
X5952500Y-11887500D01*
X6321071Y-11703214D02*
X6349643Y-11703214D01*
X6378214Y-11717500D01*
X6392500Y-11731786D01*
X6406786Y-11760357D01*
X6421071Y-11817500D01*
X6421071Y-11888929D01*
X6406786Y-11946071D01*
X6392500Y-11974643D01*
X6378214Y-11988929D01*
X6349643Y-12003214D01*
X6321071Y-12003214D01*
X6292500Y-11988929D01*
X6278214Y-11974643D01*
X6263928Y-11946071D01*
X6249643Y-11888929D01*
X6249643Y-11817500D01*
X6263928Y-11760357D01*
X6278214Y-11731786D01*
X6292500Y-11717500D01*
X6321071Y-11703214D01*
X6549643Y-11974643D02*
X6563928Y-11988929D01*
X6549643Y-12003214D01*
X6535357Y-11988929D01*
X6549643Y-11974643D01*
X6549643Y-12003214D01*
X6821071Y-11803214D02*
X6821071Y-12003214D01*
X6749643Y-11688929D02*
X6678214Y-11903214D01*
X6863928Y-11903214D01*
X7035357Y-11703214D02*
X7063928Y-11703214D01*
X7092500Y-11717500D01*
X7106786Y-11731786D01*
X7121071Y-11760357D01*
X7135357Y-11817500D01*
X7135357Y-11888929D01*
X7121071Y-11946071D01*
X7106786Y-11974643D01*
X7092500Y-11988929D01*
X7063928Y-12003214D01*
X7035357Y-12003214D01*
X7006786Y-11988929D01*
X6992500Y-11974643D01*
X6978214Y-11946071D01*
X6963928Y-11888929D01*
X6963928Y-11817500D01*
X6978214Y-11760357D01*
X6992500Y-11731786D01*
X7006786Y-11717500D01*
X7035357Y-11703214D01*
X7263928Y-12003214D02*
X7263928Y-11803214D01*
X7263928Y-11831786D02*
X7278214Y-11817500D01*
X7306786Y-11803214D01*
X7349643Y-11803214D01*
X7378214Y-11817500D01*
X7392500Y-11846071D01*
X7392500Y-12003214D01*
X7392500Y-11846071D02*
X7406786Y-11817500D01*
X7435357Y-11803214D01*
X7478214Y-11803214D01*
X7506786Y-11817500D01*
X7521071Y-11846071D01*
X7521071Y-12003214D01*
X7663928Y-12003214D02*
X7663928Y-11803214D01*
X7663928Y-11831786D02*
X7678214Y-11817500D01*
X7706786Y-11803214D01*
X7749643Y-11803214D01*
X7778214Y-11817500D01*
X7792500Y-11846071D01*
X7792500Y-12003214D01*
X7792500Y-11846071D02*
X7806786Y-11817500D01*
X7835357Y-11803214D01*
X7878214Y-11803214D01*
X7906786Y-11817500D01*
X7921071Y-11846071D01*
X7921071Y-12003214D01*
X8506786Y-11688929D02*
X8249643Y-12074643D01*
X8892500Y-11703214D02*
X8921071Y-11703214D01*
X8949643Y-11717500D01*
X8963928Y-11731786D01*
X8978214Y-11760357D01*
X8992500Y-11817500D01*
X8992500Y-11888929D01*
X8978214Y-11946071D01*
X8963928Y-11974643D01*
X8949643Y-11988929D01*
X8921071Y-12003214D01*
X8892500Y-12003214D01*
X8863928Y-11988929D01*
X8849643Y-11974643D01*
X8835357Y-11946071D01*
X8821071Y-11888929D01*
X8821071Y-11817500D01*
X8835357Y-11760357D01*
X8849643Y-11731786D01*
X8863928Y-11717500D01*
X8892500Y-11703214D01*
X9121071Y-11974643D02*
X9135357Y-11988929D01*
X9121071Y-12003214D01*
X9106786Y-11988929D01*
X9121071Y-11974643D01*
X9121071Y-12003214D01*
X9321071Y-11703214D02*
X9349643Y-11703214D01*
X9378214Y-11717500D01*
X9392500Y-11731786D01*
X9406786Y-11760357D01*
X9421071Y-11817500D01*
X9421071Y-11888929D01*
X9406786Y-11946071D01*
X9392500Y-11974643D01*
X9378214Y-11988929D01*
X9349643Y-12003214D01*
X9321071Y-12003214D01*
X9292500Y-11988929D01*
X9278214Y-11974643D01*
X9263928Y-11946071D01*
X9249643Y-11888929D01*
X9249643Y-11817500D01*
X9263928Y-11760357D01*
X9278214Y-11731786D01*
X9292500Y-11717500D01*
X9321071Y-11703214D01*
X9706786Y-12003214D02*
X9535357Y-12003214D01*
X9621071Y-12003214D02*
X9621071Y-11703214D01*
X9592500Y-11746071D01*
X9563928Y-11774643D01*
X9535357Y-11788929D01*
X9963928Y-11703214D02*
X9906786Y-11703214D01*
X9878214Y-11717500D01*
X9863928Y-11731786D01*
X9835357Y-11774643D01*
X9821071Y-11831786D01*
X9821071Y-11946071D01*
X9835357Y-11974643D01*
X9849643Y-11988929D01*
X9878214Y-12003214D01*
X9935357Y-12003214D01*
X9963928Y-11988929D01*
X9978214Y-11974643D01*
X9992500Y-11946071D01*
X9992500Y-11874643D01*
X9978214Y-11846071D01*
X9963928Y-11831786D01*
X9935357Y-11817500D01*
X9878214Y-11817500D01*
X9849643Y-11831786D01*
X9835357Y-11846071D01*
X9821071Y-11874643D01*
X10106786Y-11703214D02*
X10106786Y-11760357D01*
X10221071Y-11703214D02*
X10221071Y-11760357D01*
X10663928Y-12117500D02*
X10649643Y-12103214D01*
X10621071Y-12060357D01*
X10606786Y-12031786D01*
X10592500Y-11988929D01*
X10578214Y-11917500D01*
X10578214Y-11860357D01*
X10592500Y-11788929D01*
X10606786Y-11746071D01*
X10621071Y-11717500D01*
X10649643Y-11674643D01*
X10663928Y-11660357D01*
X10935357Y-12003214D02*
X10763928Y-12003214D01*
X10849643Y-12003214D02*
X10849643Y-11703214D01*
X10821071Y-11746071D01*
X10792500Y-11774643D01*
X10763928Y-11788929D01*
X11049643Y-11731786D02*
X11063928Y-11717500D01*
X11092500Y-11703214D01*
X11163928Y-11703214D01*
X11192500Y-11717500D01*
X11206785Y-11731786D01*
X11221071Y-11760357D01*
X11221071Y-11788929D01*
X11206785Y-11831786D01*
X11035357Y-12003214D01*
X11221071Y-12003214D01*
X11578214Y-12003214D02*
X11578214Y-11703214D01*
X11706785Y-12003214D02*
X11706785Y-11846071D01*
X11692500Y-11817500D01*
X11663928Y-11803214D01*
X11621071Y-11803214D01*
X11592500Y-11817500D01*
X11578214Y-11831786D01*
X11892500Y-12003214D02*
X11863928Y-11988929D01*
X11849643Y-11974643D01*
X11835357Y-11946071D01*
X11835357Y-11860357D01*
X11849643Y-11831786D01*
X11863928Y-11817500D01*
X11892500Y-11803214D01*
X11935357Y-11803214D01*
X11963928Y-11817500D01*
X11978214Y-11831786D01*
X11992500Y-11860357D01*
X11992500Y-11946071D01*
X11978214Y-11974643D01*
X11963928Y-11988929D01*
X11935357Y-12003214D01*
X11892500Y-12003214D01*
X12163928Y-12003214D02*
X12135357Y-11988929D01*
X12121071Y-11960357D01*
X12121071Y-11703214D01*
X12392500Y-11988929D02*
X12363928Y-12003214D01*
X12306786Y-12003214D01*
X12278214Y-11988929D01*
X12263928Y-11960357D01*
X12263928Y-11846071D01*
X12278214Y-11817500D01*
X12306786Y-11803214D01*
X12363928Y-11803214D01*
X12392500Y-11817500D01*
X12406786Y-11846071D01*
X12406786Y-11874643D01*
X12263928Y-11903214D01*
X12521071Y-11988929D02*
X12549643Y-12003214D01*
X12606786Y-12003214D01*
X12635357Y-11988929D01*
X12649643Y-11960357D01*
X12649643Y-11946071D01*
X12635357Y-11917500D01*
X12606786Y-11903214D01*
X12563928Y-11903214D01*
X12535357Y-11888929D01*
X12521071Y-11860357D01*
X12521071Y-11846071D01*
X12535357Y-11817500D01*
X12563928Y-11803214D01*
X12606786Y-11803214D01*
X12635357Y-11817500D01*
X12749643Y-12117500D02*
X12763928Y-12103214D01*
X12792500Y-12060357D01*
X12806786Y-12031786D01*
X12821071Y-11988929D01*
X12835357Y-11917500D01*
X12835357Y-11860357D01*
X12821071Y-11788929D01*
X12806786Y-11746071D01*
X12792500Y-11717500D01*
X12763928Y-11674643D01*
X12749643Y-11660357D01*
M02*
