G04 #@! TF.FileFunction,Copper,L1,Top,Signal*
%FSLAX46Y46*%
G04 Gerber Fmt 4.6, Leading zero omitted, Abs format (unit mm)*
G04 Created by KiCad (PCBNEW 4.0.7) date 06/26/18 11:25:45*
%MOMM*%
%LPD*%
G01*
G04 APERTURE LIST*
%ADD10C,0.100000*%
%ADD11C,0.700000*%
%ADD12C,0.300000*%
%ADD13R,1.500000X1.500000*%
%ADD14R,1.250000X1.000000*%
%ADD15R,0.700000X1.300000*%
%ADD16R,1.300000X0.700000*%
%ADD17R,0.508000X1.143000*%
%ADD18R,1.000000X3.500000*%
%ADD19C,0.600000*%
%ADD20C,0.500000*%
%ADD21C,0.250000*%
%ADD22C,0.025400*%
G04 APERTURE END LIST*
D10*
D11*
X128524191Y-78771714D02*
X131571810Y-78771714D01*
X130048000Y-80295524D02*
X130048000Y-77247905D01*
D12*
X71605145Y-81342571D02*
X71748002Y-81342571D01*
X71890859Y-81414000D01*
X71962288Y-81485429D01*
X72033717Y-81628286D01*
X72105145Y-81914000D01*
X72105145Y-82271143D01*
X72033717Y-82556857D01*
X71962288Y-82699714D01*
X71890859Y-82771143D01*
X71748002Y-82842571D01*
X71605145Y-82842571D01*
X71462288Y-82771143D01*
X71390859Y-82699714D01*
X71319431Y-82556857D01*
X71248002Y-82271143D01*
X71248002Y-81914000D01*
X71319431Y-81628286D01*
X71390859Y-81485429D01*
X71462288Y-81414000D01*
X71605145Y-81342571D01*
X73390859Y-81842571D02*
X73390859Y-82842571D01*
X73033716Y-81271143D02*
X72676573Y-82342571D01*
X73605145Y-82342571D01*
X74890859Y-81342571D02*
X74176573Y-81342571D01*
X74105144Y-82056857D01*
X74176573Y-81985429D01*
X74319430Y-81914000D01*
X74676573Y-81914000D01*
X74819430Y-81985429D01*
X74890859Y-82056857D01*
X74962287Y-82199714D01*
X74962287Y-82556857D01*
X74890859Y-82699714D01*
X74819430Y-82771143D01*
X74676573Y-82842571D01*
X74319430Y-82842571D01*
X74176573Y-82771143D01*
X74105144Y-82699714D01*
X75676572Y-82842571D02*
X75962287Y-82842571D01*
X76105144Y-82771143D01*
X76176572Y-82699714D01*
X76319430Y-82485429D01*
X76390858Y-82199714D01*
X76390858Y-81628286D01*
X76319430Y-81485429D01*
X76248001Y-81414000D01*
X76105144Y-81342571D01*
X75819430Y-81342571D01*
X75676572Y-81414000D01*
X75605144Y-81485429D01*
X75533715Y-81628286D01*
X75533715Y-81985429D01*
X75605144Y-82128286D01*
X75676572Y-82199714D01*
X75819430Y-82271143D01*
X76105144Y-82271143D01*
X76248001Y-82199714D01*
X76319430Y-82128286D01*
X76390858Y-81985429D01*
X78890858Y-81342571D02*
X78176572Y-81342571D01*
X78105143Y-82056857D01*
X78176572Y-81985429D01*
X78319429Y-81914000D01*
X78676572Y-81914000D01*
X78819429Y-81985429D01*
X78890858Y-82056857D01*
X78962286Y-82199714D01*
X78962286Y-82556857D01*
X78890858Y-82699714D01*
X78819429Y-82771143D01*
X78676572Y-82842571D01*
X78319429Y-82842571D01*
X78176572Y-82771143D01*
X78105143Y-82699714D01*
X79676571Y-82842571D02*
X79962286Y-82842571D01*
X80105143Y-82771143D01*
X80176571Y-82699714D01*
X80319429Y-82485429D01*
X80390857Y-82199714D01*
X80390857Y-81628286D01*
X80319429Y-81485429D01*
X80248000Y-81414000D01*
X80105143Y-81342571D01*
X79819429Y-81342571D01*
X79676571Y-81414000D01*
X79605143Y-81485429D01*
X79533714Y-81628286D01*
X79533714Y-81985429D01*
X79605143Y-82128286D01*
X79676571Y-82199714D01*
X79819429Y-82271143D01*
X80105143Y-82271143D01*
X80248000Y-82199714D01*
X80319429Y-82128286D01*
X80390857Y-81985429D01*
X81319428Y-81342571D02*
X81462285Y-81342571D01*
X81605142Y-81414000D01*
X81676571Y-81485429D01*
X81748000Y-81628286D01*
X81819428Y-81914000D01*
X81819428Y-82271143D01*
X81748000Y-82556857D01*
X81676571Y-82699714D01*
X81605142Y-82771143D01*
X81462285Y-82842571D01*
X81319428Y-82842571D01*
X81176571Y-82771143D01*
X81105142Y-82699714D01*
X81033714Y-82556857D01*
X80962285Y-82271143D01*
X80962285Y-81914000D01*
X81033714Y-81628286D01*
X81105142Y-81485429D01*
X81176571Y-81414000D01*
X81319428Y-81342571D01*
X83676570Y-82842571D02*
X83962285Y-82842571D01*
X84105142Y-82771143D01*
X84176570Y-82699714D01*
X84319428Y-82485429D01*
X84390856Y-82199714D01*
X84390856Y-81628286D01*
X84319428Y-81485429D01*
X84247999Y-81414000D01*
X84105142Y-81342571D01*
X83819428Y-81342571D01*
X83676570Y-81414000D01*
X83605142Y-81485429D01*
X83533713Y-81628286D01*
X83533713Y-81985429D01*
X83605142Y-82128286D01*
X83676570Y-82199714D01*
X83819428Y-82271143D01*
X84105142Y-82271143D01*
X84247999Y-82199714D01*
X84319428Y-82128286D01*
X84390856Y-81985429D01*
X85819427Y-82842571D02*
X84962284Y-82842571D01*
X85390856Y-82842571D02*
X85390856Y-81342571D01*
X85247999Y-81556857D01*
X85105141Y-81699714D01*
X84962284Y-81771143D01*
X86533712Y-82842571D02*
X86819427Y-82842571D01*
X86962284Y-82771143D01*
X87033712Y-82699714D01*
X87176570Y-82485429D01*
X87247998Y-82199714D01*
X87247998Y-81628286D01*
X87176570Y-81485429D01*
X87105141Y-81414000D01*
X86962284Y-81342571D01*
X86676570Y-81342571D01*
X86533712Y-81414000D01*
X86462284Y-81485429D01*
X86390855Y-81628286D01*
X86390855Y-81985429D01*
X86462284Y-82128286D01*
X86533712Y-82199714D01*
X86676570Y-82271143D01*
X86962284Y-82271143D01*
X87105141Y-82199714D01*
X87176570Y-82128286D01*
X87247998Y-81985429D01*
D13*
X97562400Y-90678000D03*
X100862400Y-90678000D03*
D14*
X111887000Y-69882000D03*
X111887000Y-71882000D03*
D15*
X100589000Y-72644000D03*
X102489000Y-72644000D03*
X100589000Y-69215000D03*
X102489000Y-69215000D03*
D16*
X108585000Y-79243000D03*
X108585000Y-77343000D03*
X105156000Y-79243000D03*
X105156000Y-77343000D03*
X101743000Y-79243000D03*
X101743000Y-77343000D03*
X112014000Y-79243000D03*
X112014000Y-77343000D03*
D17*
X109728000Y-73914000D03*
X108458000Y-73914000D03*
X107188000Y-73914000D03*
X105918000Y-73914000D03*
X105918000Y-67564000D03*
X107188000Y-67564000D03*
X108458000Y-67564000D03*
X109728000Y-67564000D03*
D13*
X97000000Y-99650000D03*
X97000000Y-96350000D03*
X109000000Y-96350000D03*
X109000000Y-99650000D03*
X103000000Y-99650000D03*
X103000000Y-96350000D03*
X91000000Y-96350000D03*
X91000000Y-99650000D03*
X85000000Y-96350000D03*
X85000000Y-99650000D03*
X79000000Y-99650000D03*
X79000000Y-96350000D03*
X73000000Y-96350000D03*
X73000000Y-99650000D03*
X67000000Y-99650000D03*
X67000000Y-96350000D03*
D15*
X92232400Y-85598000D03*
X94132400Y-85598000D03*
X94168000Y-90678000D03*
X92268000Y-90678000D03*
D13*
X97538000Y-85598000D03*
X100838000Y-85598000D03*
D18*
X125698000Y-94667000D03*
X121698000Y-94667000D03*
X125698000Y-103167000D03*
X121698000Y-103167000D03*
X139906000Y-94667000D03*
X135906000Y-94667000D03*
X139906000Y-103167000D03*
X135906000Y-103167000D03*
D19*
X100584000Y-70916806D03*
X111887000Y-68960992D03*
X115052010Y-72771000D03*
X114554000Y-56260990D03*
X111887000Y-72771000D03*
X111760000Y-64719188D03*
X103759000Y-69215000D03*
X105918000Y-69215000D03*
X104267000Y-65913000D03*
X103467568Y-65943464D03*
X105729348Y-71435658D03*
X107188000Y-69342010D03*
D20*
X100584006Y-70916806D02*
X100584000Y-70916806D01*
X100589000Y-70739000D02*
X100589000Y-72644000D01*
X100589000Y-69215000D02*
X100589000Y-70739000D01*
X111587001Y-68660993D02*
X111887000Y-68960992D01*
X110490008Y-67564000D02*
X111587001Y-68660993D01*
X110490000Y-67564000D02*
X110490008Y-67564000D01*
X111887000Y-69882000D02*
X111887000Y-68960992D01*
X100584000Y-69215000D02*
X100589000Y-69220000D01*
D21*
X110490000Y-67564000D02*
X110363000Y-67564000D01*
D20*
X110363000Y-67564000D02*
X109728000Y-67564000D01*
D21*
X121698000Y-92551000D02*
X122174000Y-92075000D01*
X132461000Y-92075000D02*
X134747000Y-94361000D01*
X122174000Y-92075000D02*
X132461000Y-92075000D01*
X134747000Y-94361000D02*
X135636000Y-94361000D01*
X135636000Y-94361000D02*
X135906000Y-94631000D01*
X135906000Y-94631000D02*
X135906000Y-103417000D01*
X121698000Y-92551000D02*
X121698000Y-94667000D01*
X121698000Y-105029000D02*
X121698000Y-92551000D01*
X121698000Y-105632000D02*
X121698000Y-105029000D01*
X121698000Y-105029000D02*
X121698000Y-103167000D01*
X115052010Y-73152000D02*
X115052010Y-105273010D01*
X115052010Y-105273010D02*
X115824000Y-106045000D01*
X115824000Y-106045000D02*
X121285000Y-106045000D01*
X121285000Y-106045000D02*
X121698000Y-105632000D01*
D20*
X115052010Y-73195264D02*
X115052010Y-72771000D01*
X115052010Y-56372590D02*
X115052010Y-72346736D01*
X115052010Y-72346736D02*
X115052010Y-72771000D01*
X115112800Y-56311800D02*
X115052010Y-56372590D01*
D21*
X115052010Y-73152000D02*
X115052010Y-72780990D01*
X115052010Y-73152000D02*
X115052010Y-73195264D01*
X115052010Y-72780990D02*
X115062000Y-72771000D01*
D20*
X114989254Y-56250000D02*
X115468400Y-56250000D01*
X115468400Y-56250000D02*
X115750000Y-56250000D01*
D21*
X115052010Y-56982190D02*
X115052010Y-56666390D01*
X115087400Y-56743600D02*
X115503790Y-56327210D01*
X115052010Y-56982190D02*
X115052010Y-56759000D01*
X115052010Y-56759000D02*
X114554000Y-56260990D01*
D20*
X114554000Y-56260990D02*
X114978264Y-56260990D01*
D21*
X114978264Y-56260990D02*
X114989254Y-56250000D01*
D20*
X115750000Y-56250000D02*
X121250000Y-56250000D01*
X122500000Y-57500000D02*
X123750000Y-56250000D01*
X123750000Y-56250000D02*
X136250000Y-56250000D01*
X136250000Y-56250000D02*
X137500000Y-57500000D01*
X137500000Y-57500000D02*
X137500000Y-67500000D01*
X122500000Y-57500000D02*
X122500000Y-67500000D01*
X121250000Y-56250000D02*
X122500000Y-57500000D01*
X109728000Y-73914000D02*
X110744000Y-73914000D01*
X110744000Y-73914000D02*
X111887000Y-72771000D01*
X111887000Y-72771000D02*
X111887000Y-71882000D01*
D21*
X112268000Y-72136000D02*
X112268000Y-71723000D01*
X109952000Y-73914000D02*
X109728000Y-73914000D01*
X92252800Y-85547200D02*
X92252800Y-88950800D01*
X92252800Y-88950800D02*
X92760800Y-89458800D01*
X92760800Y-89458800D02*
X98602800Y-89458800D01*
X98602800Y-89458800D02*
X99771200Y-90627200D01*
X99771200Y-90627200D02*
X100990400Y-90627200D01*
X108585000Y-79243000D02*
X107685000Y-79243000D01*
X107685000Y-79243000D02*
X106674000Y-78232000D01*
X106674000Y-78232000D02*
X104394000Y-78232000D01*
X104394000Y-78232000D02*
X102235000Y-80391000D01*
X102235000Y-80391000D02*
X102235000Y-88468200D01*
X102235000Y-88468200D02*
X100862400Y-89840800D01*
X100862400Y-89840800D02*
X100862400Y-90678000D01*
X100711000Y-90932000D02*
X100888800Y-91109800D01*
X100888800Y-91109800D02*
X100888800Y-95238800D01*
X100888800Y-95238800D02*
X102000000Y-96350000D01*
X102000000Y-96350000D02*
X103000000Y-96350000D01*
X109000000Y-96350000D02*
X103000000Y-96350000D01*
X109000000Y-99650000D02*
X109426000Y-100076000D01*
X109426000Y-100076000D02*
X111887000Y-100076000D01*
X112522000Y-81280000D02*
X111379000Y-80137000D01*
X111887000Y-100076000D02*
X112522000Y-99441000D01*
X112522000Y-99441000D02*
X112522000Y-81280000D01*
X111379000Y-80137000D02*
X106950000Y-80137000D01*
X106950000Y-80137000D02*
X106056000Y-79243000D01*
X106056000Y-79243000D02*
X105156000Y-79243000D01*
X87755000Y-97915000D02*
X89490000Y-99650000D01*
X89490000Y-99650000D02*
X91000000Y-99650000D01*
X75565000Y-97915000D02*
X87755000Y-97915000D01*
X73000000Y-96350000D02*
X74000000Y-96350000D01*
X74000000Y-96350000D02*
X75565000Y-97915000D01*
X67000000Y-96350000D02*
X73000000Y-96350000D01*
X97000000Y-99650000D02*
X91000000Y-99650000D01*
X103000000Y-99650000D02*
X97000000Y-99650000D01*
X109000000Y-99650000D02*
X103000000Y-99650000D01*
X100838000Y-85598000D02*
X99822000Y-85598000D01*
X99822000Y-85598000D02*
X98552000Y-84328000D01*
X98552000Y-84328000D02*
X91440000Y-84328000D01*
X91440000Y-84328000D02*
X91186000Y-84582000D01*
X91186000Y-84582000D02*
X91186000Y-90196000D01*
X91186000Y-90196000D02*
X91668000Y-90678000D01*
X91668000Y-90678000D02*
X92268000Y-90678000D01*
X91000000Y-96350000D02*
X97000000Y-96350000D01*
X85000000Y-96350000D02*
X91000000Y-96350000D01*
X91000000Y-96350000D02*
X91059000Y-96291000D01*
X91059000Y-96291000D02*
X91059000Y-91008200D01*
X91059000Y-91008200D02*
X91389200Y-90678000D01*
X91389200Y-90678000D02*
X92268000Y-90678000D01*
X100838000Y-85598000D02*
X100965000Y-85471000D01*
X100965000Y-85471000D02*
X100965000Y-84201000D01*
X100965000Y-84201000D02*
X101727000Y-83439000D01*
X101727000Y-83439000D02*
X101727000Y-79527000D01*
X101727000Y-79527000D02*
X101443000Y-79243000D01*
X101443000Y-79243000D02*
X101743000Y-79243000D01*
X79000000Y-96350000D02*
X97000000Y-96350000D01*
X79000000Y-99650000D02*
X85000000Y-99650000D01*
X73000000Y-99650000D02*
X79000000Y-99650000D01*
X68000000Y-99650000D02*
X73000000Y-99650000D01*
X112014000Y-79243000D02*
X112014000Y-79883000D01*
X112014000Y-79883000D02*
X113157000Y-81026000D01*
X113157000Y-81026000D02*
X113157000Y-99695000D01*
X113157000Y-99695000D02*
X111887000Y-100965000D01*
X87315000Y-100965000D02*
X86000000Y-99650000D01*
X111887000Y-100965000D02*
X87315000Y-100965000D01*
X86000000Y-99650000D02*
X85000000Y-99650000D01*
X111765000Y-79243000D02*
X112014000Y-79243000D01*
X67000000Y-99650000D02*
X68000000Y-99650000D01*
X97538000Y-85598000D02*
X96538000Y-85598000D01*
X96538000Y-85598000D02*
X94132400Y-85598000D01*
X97562400Y-90678000D02*
X94168000Y-90678000D01*
X111810800Y-65709800D02*
X114427000Y-68326000D01*
X114427000Y-68326000D02*
X114427000Y-105410000D01*
X114427000Y-105410000D02*
X115579400Y-106562400D01*
X115579400Y-106562400D02*
X124958600Y-106562400D01*
X124958600Y-106562400D02*
X125698000Y-105823000D01*
X125698000Y-105823000D02*
X125698000Y-103417000D01*
X111251994Y-65150994D02*
X111810800Y-65709800D01*
X111460001Y-65019187D02*
X111460001Y-65359001D01*
X111460001Y-65359001D02*
X111810800Y-65709800D01*
X111460001Y-65019187D02*
X111760000Y-64719188D01*
X111328194Y-65150994D02*
X111460001Y-65019187D01*
X111251994Y-65150994D02*
X111328194Y-65150994D01*
X102489000Y-69215000D02*
X103759000Y-69215000D01*
X105918000Y-67564000D02*
X105918000Y-69215000D01*
X109093000Y-65150994D02*
X111251994Y-65150994D01*
X125698000Y-103417000D02*
X125698000Y-96667000D01*
X125698000Y-96667000D02*
X125698000Y-94417000D01*
X108414736Y-65150994D02*
X108585000Y-65150994D01*
X108585000Y-65150994D02*
X108839000Y-65150994D01*
X109093000Y-65150994D02*
X108839000Y-65150994D01*
X105918000Y-67246500D02*
X108013506Y-65150994D01*
X105918000Y-67564000D02*
X105918000Y-67246500D01*
X108013506Y-65150994D02*
X108414736Y-65150994D01*
X104566999Y-66212999D02*
X104267000Y-65913000D01*
X104834013Y-66480013D02*
X104566999Y-66212999D01*
X108458000Y-73914000D02*
X108458000Y-72644000D01*
X108458000Y-72644000D02*
X104834013Y-69020013D01*
X104834013Y-69020013D02*
X104834013Y-66480013D01*
X108458000Y-73914000D02*
X108458000Y-77216000D01*
X108458000Y-77216000D02*
X108585000Y-77343000D01*
X108285000Y-77343000D02*
X108585000Y-77343000D01*
X108458000Y-73914000D02*
X108458000Y-74168000D01*
X104384002Y-69206412D02*
X104384002Y-67284162D01*
X107188000Y-73914000D02*
X107188000Y-72010410D01*
X104384002Y-67284162D02*
X103467568Y-66367728D01*
X103467568Y-66367728D02*
X103467568Y-65943464D01*
X107188000Y-72010410D02*
X104384002Y-69206412D01*
X105156000Y-77343000D02*
X105156000Y-76767500D01*
X105156000Y-76767500D02*
X107188000Y-74735500D01*
X107188000Y-74735500D02*
X107188000Y-73914000D01*
X139906000Y-103417000D02*
X139906000Y-106340400D01*
X113791999Y-105648000D02*
X113791999Y-104495600D01*
X139906000Y-106340400D02*
X139183189Y-107063211D01*
X139183189Y-107063211D02*
X115207210Y-107063211D01*
X115207210Y-107063211D02*
X113791999Y-105648000D01*
X105429349Y-71735657D02*
X105729348Y-71435658D01*
X104521006Y-72644000D02*
X105429349Y-71735657D01*
X102489000Y-72644000D02*
X104521006Y-72644000D01*
X107188000Y-67564000D02*
X107188000Y-69342010D01*
X107188000Y-67564000D02*
X107188000Y-67246500D01*
X107188000Y-67246500D02*
X108590509Y-65843991D01*
X108590509Y-65843991D02*
X111055991Y-65843991D01*
X111055991Y-65843991D02*
X113791999Y-68579999D01*
X113791999Y-68579999D02*
X113791999Y-74205414D01*
X113791999Y-74205414D02*
X113791999Y-104495600D01*
X113791999Y-104495600D02*
X113791999Y-104648000D01*
X139906000Y-103417000D02*
X139906000Y-94867009D01*
X107188000Y-67564000D02*
X107188000Y-67691000D01*
X101743000Y-77343000D02*
X101743000Y-76343000D01*
X101743000Y-76343000D02*
X104172000Y-73914000D01*
X104172000Y-73914000D02*
X105918000Y-73914000D01*
X108458000Y-67564000D02*
X108458000Y-67246500D01*
X108458000Y-67246500D02*
X109410498Y-66294002D01*
X109410498Y-66294002D02*
X110549004Y-66294002D01*
X110549004Y-66294002D02*
X113157000Y-68901998D01*
X113157000Y-68901998D02*
X113157000Y-75600000D01*
X113157000Y-75600000D02*
X112014000Y-76743000D01*
X112014000Y-76743000D02*
X112014000Y-77343000D01*
D22*
G36*
X124812300Y-87481516D02*
X124747071Y-87809446D01*
X124571784Y-88071782D01*
X124309445Y-88247071D01*
X123981516Y-88312300D01*
X121018484Y-88312300D01*
X120690554Y-88247071D01*
X120428218Y-88071784D01*
X120252929Y-87809445D01*
X120187700Y-87481516D01*
X120187700Y-65012700D01*
X124812300Y-65012700D01*
X124812300Y-87481516D01*
X124812300Y-87481516D01*
G37*
X124812300Y-87481516D02*
X124747071Y-87809446D01*
X124571784Y-88071782D01*
X124309445Y-88247071D01*
X123981516Y-88312300D01*
X121018484Y-88312300D01*
X120690554Y-88247071D01*
X120428218Y-88071784D01*
X120252929Y-87809445D01*
X120187700Y-87481516D01*
X120187700Y-65012700D01*
X124812300Y-65012700D01*
X124812300Y-87481516D01*
G36*
X139812300Y-87481516D02*
X139747071Y-87809446D01*
X139571784Y-88071782D01*
X139309445Y-88247071D01*
X138981516Y-88312300D01*
X136018484Y-88312300D01*
X135690554Y-88247071D01*
X135428218Y-88071784D01*
X135252929Y-87809445D01*
X135187700Y-87481516D01*
X135187700Y-65012700D01*
X139812300Y-65012700D01*
X139812300Y-87481516D01*
X139812300Y-87481516D01*
G37*
X139812300Y-87481516D02*
X139747071Y-87809446D01*
X139571784Y-88071782D01*
X139309445Y-88247071D01*
X138981516Y-88312300D01*
X136018484Y-88312300D01*
X135690554Y-88247071D01*
X135428218Y-88071784D01*
X135252929Y-87809445D01*
X135187700Y-87481516D01*
X135187700Y-65012700D01*
X139812300Y-65012700D01*
X139812300Y-87481516D01*
M02*
