G04 #@! TF.FileFunction,Copper,L2,Bot,Signal*
%FSLAX46Y46*%
G04 Gerber Fmt 4.6, Leading zero omitted, Abs format (unit mm)*
G04 Created by KiCad (PCBNEW 4.0.7) date 06/26/18 11:25:45*
%MOMM*%
%LPD*%
G01*
G04 APERTURE LIST*
%ADD10C,0.100000*%
%ADD11C,0.700000*%
%ADD12R,1.700000X1.700000*%
%ADD13O,1.700000X1.700000*%
%ADD14C,0.600000*%
%ADD15C,0.500000*%
%ADD16C,0.250000*%
%ADD17C,0.025400*%
G04 APERTURE END LIST*
D10*
D11*
X121031191Y-85883714D02*
X124078810Y-85883714D01*
X136017191Y-85883714D02*
X139064810Y-85883714D01*
D12*
X112000000Y-58000000D03*
D13*
X109460000Y-58000000D03*
X106920000Y-58000000D03*
X104380000Y-58000000D03*
X101840000Y-58000000D03*
D14*
X100584000Y-70916806D03*
X111887000Y-68960992D03*
X115052010Y-72771000D03*
X114554000Y-56260990D03*
X111887000Y-72771000D03*
X111760000Y-64719188D03*
X103759000Y-69215000D03*
X105918000Y-69215000D03*
X104267000Y-65913000D03*
X103467568Y-65943464D03*
X105729348Y-71435658D03*
X107188000Y-69342010D03*
D15*
X130048000Y-90373200D02*
X130048000Y-85953600D01*
X128092200Y-92329000D02*
X130048000Y-90373200D01*
X115925600Y-90068400D02*
X118186200Y-92329000D01*
X115925600Y-70967600D02*
X115925600Y-90068400D01*
X130048000Y-85953600D02*
X130251200Y-85750400D01*
X115189000Y-70231000D02*
X115925600Y-70967600D01*
X112141000Y-70231000D02*
X115189000Y-70231000D01*
X118186200Y-92329000D02*
X128092200Y-92329000D01*
D16*
X109155192Y-66663608D02*
X109321600Y-66497200D01*
X109663192Y-66533992D02*
X109829600Y-66700400D01*
X109460000Y-66533992D02*
X109663192Y-66533992D01*
D15*
X109460000Y-58000000D02*
X109460000Y-66533992D01*
D16*
X130251200Y-85750400D02*
X130302000Y-85801200D01*
X101008264Y-70916806D02*
X100584000Y-70916806D01*
X101676194Y-70916806D02*
X101008264Y-70916806D01*
X101854000Y-70739000D02*
X101676194Y-70916806D01*
X111887000Y-68960992D02*
X111887000Y-69977000D01*
X111887000Y-69977000D02*
X112141000Y-70231000D01*
X100584000Y-71628000D02*
X100584000Y-71120000D01*
D15*
X111887000Y-72771000D02*
X115052010Y-72771000D01*
X114129736Y-56260990D02*
X114554000Y-56260990D01*
X108659010Y-56260990D02*
X114129736Y-56260990D01*
X106920000Y-58000000D02*
X108659010Y-56260990D01*
D16*
X112000000Y-64479188D02*
X111760000Y-64719188D01*
X112000000Y-58000000D02*
X112000000Y-64479188D01*
X105918000Y-69215000D02*
X103759000Y-69215000D01*
X104380000Y-58000000D02*
X104267000Y-58113000D01*
X104267000Y-58113000D02*
X104267000Y-65913000D01*
X101840000Y-58000000D02*
X102450000Y-58000000D01*
X102450000Y-58000000D02*
X103467568Y-59017568D01*
X103467568Y-59017568D02*
X103467568Y-65519200D01*
X103467568Y-65519200D02*
X103467568Y-65943464D01*
X106029347Y-71135659D02*
X105729348Y-71435658D01*
X107188000Y-69342010D02*
X107188000Y-69977006D01*
X107188000Y-69977006D02*
X106029347Y-71135659D01*
D17*
G36*
X132309445Y-75752929D02*
X132571784Y-75928218D01*
X132747071Y-76190554D01*
X132812300Y-76518484D01*
X132812300Y-88500000D01*
X132813553Y-88506300D01*
X127186447Y-88506300D01*
X127187700Y-88500000D01*
X127187700Y-76518484D01*
X127252929Y-76190555D01*
X127428218Y-75928216D01*
X127690554Y-75752929D01*
X128018484Y-75687700D01*
X131981516Y-75687700D01*
X132309445Y-75752929D01*
X132309445Y-75752929D01*
G37*
X132309445Y-75752929D02*
X132571784Y-75928218D01*
X132747071Y-76190554D01*
X132812300Y-76518484D01*
X132812300Y-88500000D01*
X132813553Y-88506300D01*
X127186447Y-88506300D01*
X127187700Y-88500000D01*
X127187700Y-76518484D01*
X127252929Y-76190555D01*
X127428218Y-75928216D01*
X127690554Y-75752929D01*
X128018484Y-75687700D01*
X131981516Y-75687700D01*
X132309445Y-75752929D01*
G36*
X112890300Y-69033076D02*
X112890300Y-70546364D01*
X112643740Y-70792924D01*
X111257260Y-70792924D01*
X111007130Y-70542794D01*
X109102265Y-68510938D01*
X109098156Y-68508018D01*
X109093000Y-68506924D01*
X103505000Y-68506924D01*
X103500059Y-68507925D01*
X103496020Y-68510644D01*
X103242020Y-68764644D01*
X103239233Y-68768845D01*
X103238300Y-68773624D01*
X103238300Y-73340364D01*
X102991740Y-73586924D01*
X100081260Y-73586924D01*
X99834700Y-73340364D01*
X99834700Y-68268622D01*
X99957766Y-68022491D01*
X105411599Y-66627324D01*
X110357930Y-66627324D01*
X112890300Y-69033076D01*
X112890300Y-69033076D01*
G37*
X112890300Y-69033076D02*
X112890300Y-70546364D01*
X112643740Y-70792924D01*
X111257260Y-70792924D01*
X111007130Y-70542794D01*
X109102265Y-68510938D01*
X109098156Y-68508018D01*
X109093000Y-68506924D01*
X103505000Y-68506924D01*
X103500059Y-68507925D01*
X103496020Y-68510644D01*
X103242020Y-68764644D01*
X103239233Y-68768845D01*
X103238300Y-68773624D01*
X103238300Y-73340364D01*
X102991740Y-73586924D01*
X100081260Y-73586924D01*
X99834700Y-73340364D01*
X99834700Y-68268622D01*
X99957766Y-68022491D01*
X105411599Y-66627324D01*
X110357930Y-66627324D01*
X112890300Y-69033076D01*
G36*
X113376285Y-69553833D02*
X113376620Y-69554180D01*
X113783020Y-69960580D01*
X113787221Y-69963367D01*
X113792000Y-69964300D01*
X115210554Y-69964300D01*
X115358711Y-70063071D01*
X116111918Y-70816278D01*
X115695775Y-71354815D01*
X115134480Y-70793520D01*
X115130279Y-70790733D01*
X115125500Y-70789800D01*
X111257260Y-70789800D01*
X111017013Y-70549553D01*
X112901712Y-69041794D01*
X113376285Y-69553833D01*
X113376285Y-69553833D01*
G37*
X113376285Y-69553833D02*
X113376620Y-69554180D01*
X113783020Y-69960580D01*
X113787221Y-69963367D01*
X113792000Y-69964300D01*
X115210554Y-69964300D01*
X115358711Y-70063071D01*
X116111918Y-70816278D01*
X115695775Y-71354815D01*
X115134480Y-70793520D01*
X115130279Y-70790733D01*
X115125500Y-70789800D01*
X111257260Y-70789800D01*
X111017013Y-70549553D01*
X112901712Y-69041794D01*
X113376285Y-69553833D01*
M02*
