G04 #@! TF.FileFunction,Soldermask,Top*
%FSLAX46Y46*%
G04 Gerber Fmt 4.6, Leading zero omitted, Abs format (unit mm)*
G04 Created by KiCad (PCBNEW 4.0.7) date 06/26/18 11:25:45*
%MOMM*%
%LPD*%
G01*
G04 APERTURE LIST*
%ADD10C,0.100000*%
%ADD11C,0.300000*%
%ADD12R,1.900000X1.900000*%
%ADD13R,1.650000X1.400000*%
%ADD14R,1.100000X1.700000*%
%ADD15R,1.700000X1.100000*%
%ADD16R,0.908000X1.543000*%
%ADD17R,1.400000X3.900000*%
%ADD18C,0.254000*%
G04 APERTURE END LIST*
D10*
D11*
X71605145Y-81342571D02*
X71748002Y-81342571D01*
X71890859Y-81414000D01*
X71962288Y-81485429D01*
X72033717Y-81628286D01*
X72105145Y-81914000D01*
X72105145Y-82271143D01*
X72033717Y-82556857D01*
X71962288Y-82699714D01*
X71890859Y-82771143D01*
X71748002Y-82842571D01*
X71605145Y-82842571D01*
X71462288Y-82771143D01*
X71390859Y-82699714D01*
X71319431Y-82556857D01*
X71248002Y-82271143D01*
X71248002Y-81914000D01*
X71319431Y-81628286D01*
X71390859Y-81485429D01*
X71462288Y-81414000D01*
X71605145Y-81342571D01*
X73390859Y-81842571D02*
X73390859Y-82842571D01*
X73033716Y-81271143D02*
X72676573Y-82342571D01*
X73605145Y-82342571D01*
X74890859Y-81342571D02*
X74176573Y-81342571D01*
X74105144Y-82056857D01*
X74176573Y-81985429D01*
X74319430Y-81914000D01*
X74676573Y-81914000D01*
X74819430Y-81985429D01*
X74890859Y-82056857D01*
X74962287Y-82199714D01*
X74962287Y-82556857D01*
X74890859Y-82699714D01*
X74819430Y-82771143D01*
X74676573Y-82842571D01*
X74319430Y-82842571D01*
X74176573Y-82771143D01*
X74105144Y-82699714D01*
X75676572Y-82842571D02*
X75962287Y-82842571D01*
X76105144Y-82771143D01*
X76176572Y-82699714D01*
X76319430Y-82485429D01*
X76390858Y-82199714D01*
X76390858Y-81628286D01*
X76319430Y-81485429D01*
X76248001Y-81414000D01*
X76105144Y-81342571D01*
X75819430Y-81342571D01*
X75676572Y-81414000D01*
X75605144Y-81485429D01*
X75533715Y-81628286D01*
X75533715Y-81985429D01*
X75605144Y-82128286D01*
X75676572Y-82199714D01*
X75819430Y-82271143D01*
X76105144Y-82271143D01*
X76248001Y-82199714D01*
X76319430Y-82128286D01*
X76390858Y-81985429D01*
X78890858Y-81342571D02*
X78176572Y-81342571D01*
X78105143Y-82056857D01*
X78176572Y-81985429D01*
X78319429Y-81914000D01*
X78676572Y-81914000D01*
X78819429Y-81985429D01*
X78890858Y-82056857D01*
X78962286Y-82199714D01*
X78962286Y-82556857D01*
X78890858Y-82699714D01*
X78819429Y-82771143D01*
X78676572Y-82842571D01*
X78319429Y-82842571D01*
X78176572Y-82771143D01*
X78105143Y-82699714D01*
X79676571Y-82842571D02*
X79962286Y-82842571D01*
X80105143Y-82771143D01*
X80176571Y-82699714D01*
X80319429Y-82485429D01*
X80390857Y-82199714D01*
X80390857Y-81628286D01*
X80319429Y-81485429D01*
X80248000Y-81414000D01*
X80105143Y-81342571D01*
X79819429Y-81342571D01*
X79676571Y-81414000D01*
X79605143Y-81485429D01*
X79533714Y-81628286D01*
X79533714Y-81985429D01*
X79605143Y-82128286D01*
X79676571Y-82199714D01*
X79819429Y-82271143D01*
X80105143Y-82271143D01*
X80248000Y-82199714D01*
X80319429Y-82128286D01*
X80390857Y-81985429D01*
X81319428Y-81342571D02*
X81462285Y-81342571D01*
X81605142Y-81414000D01*
X81676571Y-81485429D01*
X81748000Y-81628286D01*
X81819428Y-81914000D01*
X81819428Y-82271143D01*
X81748000Y-82556857D01*
X81676571Y-82699714D01*
X81605142Y-82771143D01*
X81462285Y-82842571D01*
X81319428Y-82842571D01*
X81176571Y-82771143D01*
X81105142Y-82699714D01*
X81033714Y-82556857D01*
X80962285Y-82271143D01*
X80962285Y-81914000D01*
X81033714Y-81628286D01*
X81105142Y-81485429D01*
X81176571Y-81414000D01*
X81319428Y-81342571D01*
X83676570Y-82842571D02*
X83962285Y-82842571D01*
X84105142Y-82771143D01*
X84176570Y-82699714D01*
X84319428Y-82485429D01*
X84390856Y-82199714D01*
X84390856Y-81628286D01*
X84319428Y-81485429D01*
X84247999Y-81414000D01*
X84105142Y-81342571D01*
X83819428Y-81342571D01*
X83676570Y-81414000D01*
X83605142Y-81485429D01*
X83533713Y-81628286D01*
X83533713Y-81985429D01*
X83605142Y-82128286D01*
X83676570Y-82199714D01*
X83819428Y-82271143D01*
X84105142Y-82271143D01*
X84247999Y-82199714D01*
X84319428Y-82128286D01*
X84390856Y-81985429D01*
X85819427Y-82842571D02*
X84962284Y-82842571D01*
X85390856Y-82842571D02*
X85390856Y-81342571D01*
X85247999Y-81556857D01*
X85105141Y-81699714D01*
X84962284Y-81771143D01*
X86533712Y-82842571D02*
X86819427Y-82842571D01*
X86962284Y-82771143D01*
X87033712Y-82699714D01*
X87176570Y-82485429D01*
X87247998Y-82199714D01*
X87247998Y-81628286D01*
X87176570Y-81485429D01*
X87105141Y-81414000D01*
X86962284Y-81342571D01*
X86676570Y-81342571D01*
X86533712Y-81414000D01*
X86462284Y-81485429D01*
X86390855Y-81628286D01*
X86390855Y-81985429D01*
X86462284Y-82128286D01*
X86533712Y-82199714D01*
X86676570Y-82271143D01*
X86962284Y-82271143D01*
X87105141Y-82199714D01*
X87176570Y-82128286D01*
X87247998Y-81985429D01*
D12*
X97562400Y-90678000D03*
X100862400Y-90678000D03*
D13*
X111887000Y-69882000D03*
X111887000Y-71882000D03*
D14*
X100589000Y-72644000D03*
X102489000Y-72644000D03*
X100589000Y-69215000D03*
X102489000Y-69215000D03*
D15*
X108585000Y-79243000D03*
X108585000Y-77343000D03*
X105156000Y-79243000D03*
X105156000Y-77343000D03*
X101743000Y-79243000D03*
X101743000Y-77343000D03*
X112014000Y-79243000D03*
X112014000Y-77343000D03*
D16*
X109728000Y-73914000D03*
X108458000Y-73914000D03*
X107188000Y-73914000D03*
X105918000Y-73914000D03*
X105918000Y-67564000D03*
X107188000Y-67564000D03*
X108458000Y-67564000D03*
X109728000Y-67564000D03*
D12*
X97000000Y-99650000D03*
X97000000Y-96350000D03*
X109000000Y-96350000D03*
X109000000Y-99650000D03*
X103000000Y-99650000D03*
X103000000Y-96350000D03*
X91000000Y-96350000D03*
X91000000Y-99650000D03*
X85000000Y-96350000D03*
X85000000Y-99650000D03*
X79000000Y-99650000D03*
X79000000Y-96350000D03*
X73000000Y-96350000D03*
X73000000Y-99650000D03*
X67000000Y-99650000D03*
X67000000Y-96350000D03*
D14*
X92232400Y-85598000D03*
X94132400Y-85598000D03*
X94168000Y-90678000D03*
X92268000Y-90678000D03*
D12*
X97538000Y-85598000D03*
X100838000Y-85598000D03*
D17*
X125698000Y-94667000D03*
X121698000Y-94667000D03*
X125698000Y-103167000D03*
X121698000Y-103167000D03*
X139906000Y-94667000D03*
X135906000Y-94667000D03*
X139906000Y-103167000D03*
X135906000Y-103167000D03*
D18*
G36*
X125123000Y-88623000D02*
X119877000Y-88623000D01*
X119877000Y-65127000D01*
X125123000Y-65127000D01*
X125123000Y-88623000D01*
X125123000Y-88623000D01*
G37*
X125123000Y-88623000D02*
X119877000Y-88623000D01*
X119877000Y-65127000D01*
X125123000Y-65127000D01*
X125123000Y-88623000D01*
G36*
X140123000Y-88623000D02*
X134877000Y-88623000D01*
X134877000Y-65127000D01*
X140123000Y-65127000D01*
X140123000Y-88623000D01*
X140123000Y-88623000D01*
G37*
X140123000Y-88623000D02*
X134877000Y-88623000D01*
X134877000Y-65127000D01*
X140123000Y-65127000D01*
X140123000Y-88623000D01*
M02*
